<?xml version="1.0" standalone="no"?>
<!DOCTYPE svg PUBLIC "-//W3C//DTD SVG 1.1//EN" "http://www.w3.org/Graphics/SVG/1.1/DTD/svg11.dtd" >
<svg>
<metadata>
Created by FontForge 20110222 at Wed Jul 13 10:19:37 2011
 By www-data
Copyright (c) 2011 Synergy Digital Media Group. All rights reserved.
</metadata>
<defs>
<font id="SDHelveticonsDemo" horiz-adv-x="823" >
  <font-face 
    font-family="SD Helveticons Demo"
    font-weight="400"
    font-stretch="normal"
    units-per-em="1000"
    panose-1="2 0 5 4 0 0 0 2 0 4"
    ascent="750"
    descent="-250"
    x-height="469"
    cap-height="635"
    bbox="-19 -60 785.818 707"
    underline-thickness="50"
    underline-position="-50"
    unicode-range="U+0021-2019"
  />
    <missing-glyph />
    <glyph glyph-name="quotedbl" unicode="&#x22;" horiz-adv-x="655" 
d="M594 367v-133h-200v-201h-134v201h-200v133h200v200h134v-200h200v0z" />
    <glyph glyph-name="numbersign" unicode="#" horiz-adv-x="592" 
d="M532 443l-142 -142l142 -141l-95 -95l-141 142l-142 -142l-94 95l141 141l-141 142l94 94l142 -141l141 141z" />
    <glyph glyph-name="dollar" unicode="$" 
d="M703 124q0 -29 -20.5 -49.5t-49.5 -20.5h-443q-29 0 -49.5 20.5t-20.5 49.5v443q0 29 20.5 49.5t49.5 20.5h443q29 0 49.5 -20.5t20.5 -49.5v-443zM672 567q0 16 -11 27.5t-28 11.5h-443q-17 0 -28 -11.5t-11 -27.5v-443q0 -17 11 -28t28 -11h443q17 0 28 11t11 28v443z
M444 390q58 -10 91.5 -20.5t50 -25t20.5 -35.5t4 -52q0 -32 -10 -56t-33 -40.5t-62 -25t-97 -8.5q-22 0 -48 2t-52.5 5t-51.5 7.5t-45 9.5l25 90q34 -8 76.5 -13t87.5 -5q36 0 46 8t10 26q0 10 -1.5 16t-10 10.5t-26 9t-50.5 10.5q-50 9 -78.5 19.5t-43 25t-18.5 34.5t-4 49
q0 32 9.5 55t33 38t63.5 22t101 7q15 0 36 -1t43 -2.5t44 -4t40 -5.5l2 -3l-14 -91q-36 5 -76.5 8.5t-72.5 3.5q-35 0 -46.5 -7t-11.5 -21q0 -10 1.5 -16t8.5 -10t21 -7t38 -7zM128 33q8 0 8 -8v-3h-5v3q0 4 -2 4q-3 0 -3 -4v-18q0 -3 3 -3q2 0 2 3v6h-2v5h7v-10q0 -9 -8 -9
q-7 0 -7 9v17q0 8 7 8zM140 33h14v-5h-9v-9h7v-5h-7v-10h9v-4h-14v33zM156 33h16v-5h-6v-28h-5v28h-5v5zM180 33h16v-5h-5v-28h-5v28h-6v5zM210 33h5v-33h-5v14h-6v-14h-5v33h5v-14h6v14zM219 33h14v-5h-9v-9h7v-5h-7v-10h9v-4h-14v33zM244 33h14v-5h-9v-10h7v-5h-7v-13h-5
v33zM271 33h5v-25q0 -9 -8 -9t-8 9v25h5v-26q0 -3 3 -3t3 3v26zM284 4h9v-4h-14v33h5v-29zM300 4h9v-4h-14v33h5v-29zM319 33h14v-5h-9v-10h7v-5h-7v-13h-5v33zM343 33q8 0 8 -8v-17q0 -9 -8 -9t-8 9v17q0 8 8 8zM345 25q0 4 -2 4q-3 0 -3 -4v-18q0 -3 3 -3q2 0 2 3v18z
M366 33h5v-33h-6l-6 24v-24h-5v33h7l5 -20v20zM373 33h16v-5h-5v-28h-6v28h-5v5zM410 33l6 -33h-6l-1 6h-6l-1 -6h-5l6 33h7zM409 10l-3 17l-2 -17h5zM415 33h16v-5h-6v-28h-5v28h-5v5zM445 25q0 -5 5 -7.5t5 -9.5q0 -9 -7 -9q-8 0 -8 9v2h5v-3q0 -3 2 -3q3 0 3 3
q0 5 -5 7.5t-5 10.5t8 8q7 0 7 -8v-1h-5v1q0 4 -2 4q-3 0 -3 -4zM470 33h5l-7 -22v-11h-5v11l-7 22h6l4 -15zM489 33h4v-33h-5l-6 24v-24h-5v33h6l6 -20v20zM497 33h15v-5h-10v-9h8v-5h-8v-10h10v-4h-15v33zM530 4q0 -2 0.5 -2.5t0.5 -1.5h-5q-1 1 -1 4v5q0 4 -3 4h-2v-13
h-5v33h8q7 0 7 -8v-2q0 -6 -3 -7q3 -1 3 -7v-5zM525 25q0 3 -2 3h-3v-10h2q3 0 3 4v3zM541 33q8 0 8 -8v-3h-5v3q0 4 -3 4q-2 0 -2 -4v-18q0 -3 2 -3q3 0 3 3v6h-2v5h7v-10q0 -9 -8 -9t-8 9v17q0 8 8 8zM564 33h5l-7 -22v-11h-5v11l-7 22h6l4 -15zM585 33h8v-33h-5v24
l-4 -24h-5l-4 23v-23h-4v33h7l4 -24zM596 33h15v-5h-9v-9h7v-5h-7v-10h9v-4h-15v33zM622 33q8 0 8 -8v-17q0 -8 -8 -8h-8v33h8zM625 25q0 3 -3 3h-3v-24h3q3 0 3 4v17zM633 33h6v-33h-6v33zM654 33l5 -33h-5l-1 6h-6l-1 -6h-5l5 33h8zM652 10l-2 17l-3 -17h5zM662 5h5v-5h-5
v5zM681 33h5v-25q0 -9 -8 -9t-8 9v25h5v-26q0 -3 3 -3t3 3v26zM694 25q0 -5 5 -7.5t5 -9.5q0 -9 -8 -9t-8 9v2h5v-3q0 -3 3 -3t3 3q0 5 -5 7.5t-5 10.5t7 8q8 0 8 -8v-1h-5v1q0 4 -3 4q-2 0 -2 -4z" />
    <glyph glyph-name="percent" unicode="%" horiz-adv-x="582" 
d="M522 300l-461 -268v537l461 -269v0z" />
    <glyph glyph-name="quoteright" unicode="&#x2019;" horiz-adv-x="808" 
d="M400 653h-1h1zM748 300v-1q0 -72 -28 -136t-75.5 -111t-111.5 -74.5t-136 -27.5h-2v106h2q50 0 94.5 19t78 52t53 77.5t19.5 95.5v1q0 51 -19 95.5t-52 77.5t-77.5 52.5t-95.5 19.5h-1q-54 0 -99.5 -20.5t-79.5 -56.5l84 -85h-242v245l83 -84q48 50 113.5 79t140.5 29h2
q73 -1 136.5 -29t110.5 -75.5t74.5 -111.5t27.5 -136v-1z" />
    <glyph glyph-name="asterisk" unicode="*" horiz-adv-x="550" 
d="M142 390l183 136v-453l-183 136h-82v181h82zM421 466q34 -35 51.5 -78t17.5 -88q0 -46 -17 -89t-52 -78q-10 -8 -20 -8q-11 0 -19 8t-8 19.5t8 19.5q26 26 39.5 59.5t13.5 68.5t-13.5 68t-39.5 59q-8 8 -8 19.5t8 19.5t19.5 8t19.5 -8z" />
    <glyph glyph-name="plus" unicode="+" horiz-adv-x="806" 
d="M711 -60l-651 652l34 35l652 -652l-35 -35v0v0z" />
    <glyph glyph-name="comma" unicode="," horiz-adv-x="656" 
d="M516 578q33 0 57 -23.5t24 -57.5v-396q0 -33 -24 -56.5t-57 -23.5h-376q-33 0 -56.5 23.5t-23.5 56.5v396q0 34 23.5 57.5t56.5 23.5h376zM556 497q0 17 -11.5 28.5t-28.5 11.5h-376q-17 0 -28.5 -11.5t-11.5 -28.5v-396q0 -17 11.5 -28.5t28.5 -11.5h376q17 0 28.5 11.5
t11.5 28.5v396z" />
    <glyph glyph-name="hyphen" unicode="-" horiz-adv-x="420" 
d="M212 444q-42 0 -71 28.5t-29 70.5t29 71t71 29t70.5 -29t28.5 -71t-28.5 -70.5t-70.5 -28.5zM346 399q4 -4 6.5 -16.5t4 -29.5t2.5 -37.5t1 -41.5q1 -49 -1 -108l-44 105l-27 -313l-74 160l-81 -160l-27 313l-45 -105q-2 60 -1 109q0 21 1 41.5t3 37.5t4.5 29t6.5 16
q7 7 16.5 13t24.5 10.5t37 7t56 2.5t57 -2t38 -6.5t24.5 -10.5t17.5 -14z" />
    <glyph glyph-name="period" unicode="." 
d="M728 507q14 0 24.5 -10t10.5 -24v-292h-143v-206h-258l-159 158v50h-143v290q0 14 10 24t24 10h109v119h417v-119h108zM243 507h336v79h-336v-79zM659 374h-496v-135h40v78h40v-131q1 -24 23 -31.5t48 -6.5q31 1 69 9q-7 -40 -7 -71q0 -27 7.5 -49t30.5 -22h165v302h41
v-80h39v137zM688 424q11 0 19.5 8t8.5 19t-8.5 19t-19.5 8t-19 -8t-8 -19t8 -19t19 -8zM532 271h-232v40h232v-40zM300 232h232v-40h-232v40z" />
    <glyph glyph-name="slash" unicode="/" horiz-adv-x="830" 
d="M714 124q0 -29 -20.5 -49.5t-49.5 -20.5h-443q-29 0 -49.5 20.5t-20.5 49.5v443q0 29 20.5 49.5t49.5 20.5h443q29 0 49.5 -20.5t20.5 -49.5v-443zM683 567q0 16 -11 27.5t-28 11.5h-443q-17 0 -28 -11.5t-11 -27.5v-443q0 -17 11 -28t28 -11h443q17 0 28 11t11 28v443z
M455 390q58 -10 91.5 -20.5t50 -25t20.5 -35.5t4 -52q0 -32 -10 -56t-33 -40.5t-62 -25t-97 -8.5q-22 0 -48 2t-52.5 5t-51.5 7.5t-45 9.5l25 90q34 -8 76.5 -13t87.5 -5q36 0 46 8t10 26q0 10 -1.5 16t-10 10.5t-26 9t-50.5 10.5q-50 9 -78.5 19.5t-43 25t-18.5 34.5t-4 49
q0 32 9.5 55t33 38t63.5 22t101 7q15 0 36 -1t43 -2.5t44 -4t40 -5.5l2 -3l-14 -91q-36 5 -76.5 8.5t-72.5 3.5q-35 0 -46.5 -7t-11.5 -21q0 -10 1.5 -16t8.5 -10t21 -7t38 -7zM139 33q8 0 8 -8v-3h-5v3q0 4 -2 4q-3 0 -3 -4v-18q0 -3 3 -3q2 0 2 3v6h-2v5h7v-10q0 -9 -8 -9
q-7 0 -7 9v17q0 8 7 8zM151 33h14v-5h-9v-9h7v-5h-7v-10h9v-4h-14v33zM167 33h16v-5h-6v-28h-5v28h-5v5zM191 33h16v-5h-5v-28h-5v28h-6v5zM221 33h5v-33h-5v14h-6v-14h-5v33h5v-14h6v14zM230 33h14v-5h-9v-9h7v-5h-7v-10h9v-4h-14v33zM255 33h14v-5h-9v-10h7v-5h-7v-13h-5
v33zM282 33h5v-25q0 -9 -8 -9t-8 9v25h5v-26q0 -3 3 -3t3 3v26zM295 4h9v-4h-14v33h5v-29zM311 4h9v-4h-14v33h5v-29zM330 33h14v-5h-9v-10h7v-5h-7v-13h-5v33zM354 33q8 0 8 -8v-17q0 -9 -8 -9t-8 9v17q0 8 8 8zM356 25q0 4 -2 4q-3 0 -3 -4v-18q0 -3 3 -3q2 0 2 3v18z
M377 33h5v-33h-6l-6 24v-24h-5v33h7l5 -20v20zM384 33h16v-5h-5v-28h-6v28h-5v5zM421 33l6 -33h-6l-1 6h-6l-1 -6h-5l6 33h7zM420 10l-3 17l-2 -17h5zM426 33h16v-5h-6v-28h-5v28h-5v5zM456 25q0 -5 5 -7.5t5 -9.5q0 -9 -7 -9q-8 0 -8 9v2h5v-3q0 -3 2 -3q3 0 3 3
q0 5 -5 7.5t-5 10.5t8 8q7 0 7 -8v-1h-5v1q0 4 -2 4q-3 0 -3 -4zM481 33h5l-7 -22v-11h-5v11l-7 22h6l4 -15zM500 33h4v-33h-5l-6 24v-24h-5v33h6l6 -20v20zM508 33h15v-5h-10v-9h8v-5h-8v-10h10v-4h-15v33zM541 4q0 -2 0.5 -2.5t0.5 -1.5h-5q-1 1 -1 4v5q0 4 -3 4h-2v-13
h-5v33h8q7 0 7 -8v-2q0 -6 -3 -7q3 -1 3 -7v-5zM536 25q0 3 -2 3h-3v-10h2q3 0 3 4v3zM552 33q8 0 8 -8v-3h-5v3q0 4 -3 4q-2 0 -2 -4v-18q0 -3 2 -3q3 0 3 3v6h-2v5h7v-10q0 -9 -8 -9t-8 9v17q0 8 8 8zM575 33h5l-7 -22v-11h-5v11l-7 22h6l4 -15zM596 33h8v-33h-5v24
l-4 -24h-5l-4 23v-23h-4v33h7l4 -24zM607 33h15v-5h-9v-9h7v-5h-7v-10h9v-4h-15v33zM633 33q8 0 8 -8v-17q0 -8 -8 -8h-8v33h8zM636 25q0 3 -3 3h-3v-24h3q3 0 3 4v17zM644 33h6v-33h-6v33zM665 33l5 -33h-5l-1 6h-6l-1 -6h-5l5 33h8zM663 10l-2 17l-3 -17h5zM673 5h5v-5h-5
v5zM692 33h5v-25q0 -9 -8 -9t-8 9v25h5v-26q0 -3 3 -3t3 3v26zM705 25q0 -5 5 -7.5t5 -9.5q0 -9 -8 -9t-8 9v2h5v-3q0 -3 3 -3t3 3q0 5 -5 7.5t-5 10.5t7 8q8 0 8 -8v-1h-5v1q0 4 -3 4q-2 0 -2 -4z" />
    <glyph glyph-name="one" unicode="1" horiz-adv-x="405" 
d="M202 443q-42 0 -70.5 28.5t-28.5 70.5t28.5 71t70.5 29t71 -29t29 -71t-29 -70.5t-71 -28.5zM304 426q17 0 29 -11.5t12 -28.5v-211h-58v-218h-169v218h-58v211q0 17 12 28.5t29 11.5h203z" />
    <glyph glyph-name="two" unicode="2" horiz-adv-x="499" 
d="M383 580q27 -27 41.5 -61.5t14.5 -72.5l-1 -17q-5 -41 -22 -74l-11.5 -21.5t-25 -53t-24.5 -67.5t-11 -66l-2 -24q-6 -24 -24 -24h-137q-18 0 -24 24l-2 24q0 30 -11 66t-24.5 67.5t-25 53l-11.5 21.5q-19 37 -22 74l-1 17q0 38 14.5 72.5t41.5 61.5q26 27 60.5 41.5
t72.5 14.5q27 0 54 -8q46 -14 80 -48zM390 447q0 29 -10.5 54t-30.5 45q-26 25 -60 36q-10 2 -19.5 3.5t-20.5 1.5q-28 0 -53.5 -10.5t-45.5 -30.5t-30.5 -45t-11.5 -54l1 -15q3 -27 17 -54l4 -8v-1q13 -24 25.5 -52t23 -56.5t17.5 -57.5t7 -54v-1h22v87h48v-87h23v1
q0 34 11.5 72t25 71.5t25.5 57t15 28.5q14 26 17 54v15zM172 67h154v-49h-154v49zM206 -10h87v-27h-87v27z" />
    <glyph glyph-name="three" unicode="3" horiz-adv-x="681" 
d="M360 9q13 -24 31 -41h-331v670h320l12 -11l147 -147v-251q-20 6 -40 6v192q-1 23 -23 31t-48 7q-31 -1 -69 -9q7 39 7 71q0 26 -7.5 48.5t-30.5 22.5h-228v-589h260zM435 83q0 18 9 32l84 -83q-17 -10 -33 -10q-25 0 -42.5 17.5t-17.5 43.5zM495 143q26 0 43.5 -17.5
t17.5 -42.5q0 -18 -9 -33l-84 84q13 9 32 9zM495 207q26 0 49 -10t40 -27t27 -40t10 -49t-10 -49t-27 -40t-40 -27t-49 -10t-49 10t-40 27t-27 40t-10 49t10 49t27 40t40 27t49 10zM495 -4q36 0 61.5 25.5t25.5 61.5t-25.5 61.5t-61.5 25.5t-61.5 -25.5t-25.5 -61.5
t25.5 -61.5t61.5 -25.5z" />
    <glyph glyph-name="four" unicode="4" horiz-adv-x="655" 
d="M60 196h537v-134h-537v134zM327 538l267 -266h-533z" />
    <glyph glyph-name="five" unicode="5" horiz-adv-x="821" 
d="M761 561q-74 -68 -139.5 -146t-118.5 -154.5t-91.5 -145.5t-57.5 -117l-294 299l75 61l171 -134q26 31 67.5 75.5t97 95.5t124 105t148.5 103z" />
    <glyph glyph-name="six" unicode="6" horiz-adv-x="764" 
d="M653 608q26 -25 38.5 -57t12.5 -64q0 -33 -12.5 -65t-38.5 -57l-123 -123q-26 -26 -57.5 -38.5t-64.5 -12.5t-64.5 12.5t-56.5 38.5l-5 5l75 75l5 -5q19 -19 46 -19q28 0 47 19l123 123q19 19 19 47q0 12 -4.5 24t-14.5 22l-5 5q-19 19 -46 19q-28 0 -47 -19l-50 -51
q-16 -15 -38 -15t-38 15q-15 16 -15 38t15 38l51 50q25 26 57 38.5t65 12.5q32 0 64 -12.5t57 -38.5zM337 160q15 16 37 16t38 -16q16 -15 16 -37t-16 -38l-53 -53q-26 -26 -57.5 -38t-64.5 -12t-64.5 12.5t-56.5 37.5l-6 5q-25 26 -37.5 57.5t-12.5 64.5t12.5 64.5
t37.5 56.5l124 124q25 25 56.5 37.5t64.5 12.5q55 0 99 -31q4 -2 7 -4.5t6 -5.5l10 -9l5 -6l-75 -75l-5 5q-20 20 -47 20q-26 0 -46 -20l-123 -123q-20 -20 -20 -46q0 -27 20 -47l5 -5q19 -19 46 -19q28 0 47 19z" />
    <glyph glyph-name="seven" unicode="7" horiz-adv-x="811" 
d="M751 510v-422l-201 129v164zM477 485q14 0 23.5 -9.5t9.5 -23.5v-306q0 -14 -9.5 -23.5t-23.5 -9.5h-384q-14 0 -23.5 9.5t-9.5 23.5v306q0 14 9.5 23.5t23.5 9.5h384z" />
    <glyph glyph-name="eight" unicode="8" horiz-adv-x="541" 
d="M271 194q-24 0 -44.5 9t-36 24.5t-24.5 36t-9 44.5v215q0 23 9 43.5t24.5 36t36 24.5t44.5 9q23 0 43.5 -9t36 -24.5t24.5 -36t9 -43.5v-215q0 -24 -9 -44.5t-24.5 -36t-36 -24.5t-43.5 -9zM481 383v-76q0 -40 -14 -75.5t-38.5 -63t-57.5 -46t-72 -23.5v-78h92v-57h-241
v57h92v78q-38 5 -71.5 23.5t-58 46t-38.5 63t-14 75.5v76h57v-76q0 -32 12 -60t33 -49t49 -33t60 -12t60 12t49 33q20 21 32.5 49t12.5 60v76h56z" />
    <glyph glyph-name="nine" unicode="9" horiz-adv-x="800" 
d="M142 391l182 135v-452l-182 135h-82v182h82zM420 466q35 -34 52 -77.5t17 -88.5t-17 -88.5t-52 -78.5q-8 -8 -19 -8q-10 0 -20 8q-8 8 -8 19.5t8 19.5q27 27 40 60t13 68t-13 68t-40 60q-8 8 -8 19t8 19t19.5 8t19.5 -8zM507 553q53 -52 79 -118t26 -135t-26 -134.5
t-79 -118.5q-8 -9 -19 -9t-20 9q-8 8 -8 19t8 19q45 45 67 100.5t22 114.5t-22 114.5t-67 100.5q-8 8 -8 19t8 19t19.5 8t19.5 -8zM598 642q71 -71 106.5 -159.5t35.5 -182.5q0 -93 -35 -182t-107 -160q-8 -8 -19 -8q-10 0 -20 8q-8 8 -8 19.5t8 19.5q63 63 94.5 141.5
t31.5 161.5t-31.5 161.5t-94.5 141.5q-8 8 -8 19.5t8 19.5t19.5 8t19.5 -8z" />
    <glyph glyph-name="colon" unicode=":" horiz-adv-x="811" 
d="M655 228l-22 -54l40 -79l5 -10l-55 -56l-92 43l-54 -22l-27 -84l-4 -11h-79l-34 95l-54 22l-79 -40l-10 -5l-56 55l43 92l-22 54l-84 27l-11 4v79l95 34l22 54l-40 79l-5 10l55 56l92 -43l54 22l27 84l4 11h79l34 -95l54 -22l79 40l10 5l56 -55l-43 -92l22 -54l84 -27
l12 -4v-79zM405 190q23 0 43 8.5t35 23.5t23.5 35t8.5 43t-8.5 43t-23.5 35t-35 23.5t-43 8.5t-43 -8.5t-35 -23.5t-23.5 -35t-8.5 -43t8.5 -43t23.5 -35t35 -23.5t43 -8.5z" />
    <glyph glyph-name="semicolon" unicode=";" 
d="M702 124q0 -29 -20.5 -49.5t-49.5 -20.5h-443q-29 0 -49.5 20.5t-20.5 49.5v443q0 29 20.5 49.5t49.5 20.5h443q29 0 49.5 -20.5t20.5 -49.5v-443zM671 567q0 16 -11 27.5t-28 11.5h-443q-17 0 -28 -11.5t-11 -27.5v-443q0 -17 11 -28t28 -11h443q17 0 28 11t11 28v443z
M443 390q58 -10 91.5 -20.5t50 -25t20.5 -35.5t4 -52q0 -32 -10 -56t-33 -40.5t-62 -25t-97 -8.5q-22 0 -48 2t-52.5 5t-51.5 7.5t-45 9.5l25 90q34 -8 76.5 -13t87.5 -5q36 0 46 8t10 26q0 10 -1.5 16t-10 10.5t-26 9t-50.5 10.5q-50 9 -78.5 19.5t-43 25t-18.5 34.5t-4 49
q0 32 9.5 55t33 38t63.5 22t101 7q15 0 36 -1t43 -2.5t44 -4t40 -5.5l2 -3l-14 -91q-36 5 -76.5 8.5t-72.5 3.5q-35 0 -46.5 -7t-11.5 -21q0 -10 1.5 -16t8.5 -10t21 -7t38 -7zM127 33q8 0 8 -8v-3h-5v3q0 4 -2 4q-3 0 -3 -4v-18q0 -3 3 -3q2 0 2 3v6h-2v5h7v-10q0 -9 -8 -9
q-7 0 -7 9v17q0 8 7 8zM139 33h14v-5h-9v-9h7v-5h-7v-10h9v-4h-14v33zM155 33h16v-5h-6v-28h-5v28h-5v5zM179 33h16v-5h-5v-28h-5v28h-6v5zM209 33h5v-33h-5v14h-6v-14h-5v33h5v-14h6v14zM218 33h14v-5h-9v-9h7v-5h-7v-10h9v-4h-14v33zM243 33h14v-5h-9v-10h7v-5h-7v-13h-5
v33zM270 33h5v-25q0 -9 -8 -9t-8 9v25h5v-26q0 -3 3 -3t3 3v26zM283 4h9v-4h-14v33h5v-29zM299 4h9v-4h-14v33h5v-29zM318 33h14v-5h-9v-10h7v-5h-7v-13h-5v33zM342 33q8 0 8 -8v-17q0 -9 -8 -9t-8 9v17q0 8 8 8zM344 25q0 4 -2 4q-3 0 -3 -4v-18q0 -3 3 -3q2 0 2 3v18z
M365 33h5v-33h-6l-6 24v-24h-5v33h7l5 -20v20zM372 33h16v-5h-5v-28h-6v28h-5v5zM409 33l6 -33h-6l-1 6h-6l-1 -6h-5l6 33h7zM408 10l-3 17l-2 -17h5zM414 33h16v-5h-6v-28h-5v28h-5v5zM444 25q0 -5 5 -7.5t5 -9.5q0 -9 -7 -9q-8 0 -8 9v2h5v-3q0 -3 2 -3q3 0 3 3
q0 5 -5 7.5t-5 10.5t8 8q7 0 7 -8v-1h-5v1q0 4 -2 4q-3 0 -3 -4zM469 33h5l-7 -22v-11h-5v11l-7 22h6l4 -15zM488 33h4v-33h-5l-6 24v-24h-5v33h6l6 -20v20zM496 33h15v-5h-10v-9h8v-5h-8v-10h10v-4h-15v33zM529 4q0 -2 0.5 -2.5t0.5 -1.5h-5q-1 1 -1 4v5q0 4 -3 4h-2v-13
h-5v33h8q7 0 7 -8v-2q0 -6 -3 -7q3 -1 3 -7v-5zM524 25q0 3 -2 3h-3v-10h2q3 0 3 4v3zM540 33q8 0 8 -8v-3h-5v3q0 4 -3 4q-2 0 -2 -4v-18q0 -3 2 -3q3 0 3 3v6h-2v5h7v-10q0 -9 -8 -9t-8 9v17q0 8 8 8zM563 33h5l-7 -22v-11h-5v11l-7 22h6l4 -15zM584 33h8v-33h-5v24
l-4 -24h-5l-4 23v-23h-4v33h7l4 -24zM595 33h15v-5h-9v-9h7v-5h-7v-10h9v-4h-15v33zM621 33q8 0 8 -8v-17q0 -8 -8 -8h-8v33h8zM624 25q0 3 -3 3h-3v-24h3q3 0 3 4v17zM632 33h6v-33h-6v33zM653 33l5 -33h-5l-1 6h-6l-1 -6h-5l5 33h8zM651 10l-2 17l-3 -17h5zM661 5h5v-5h-5
v5zM680 33h5v-25q0 -9 -8 -9t-8 9v25h5v-26q0 -3 3 -3t3 3v26zM693 25q0 -5 5 -7.5t5 -9.5q0 -9 -8 -9t-8 9v2h5v-3q0 -3 3 -3t3 3q0 5 -5 7.5t-5 10.5t7 8q8 0 8 -8v-1h-5v1q0 4 -3 4q-2 0 -2 -4z" />
    <glyph glyph-name="less" unicode="&#x3c;" horiz-adv-x="803" 
d="M196 -13q-26 0 -51 10.5t-45 30.5t-30 45t-10 51q0 25 9 48.5t28 41.5l5 6l342 342q25 24 56 36.5t63 12.5q35 0 68 -14t59 -40t39.5 -59t13.5 -68q0 -32 -12 -63t-36 -56l-287 -287l-22 -21l-42 43l308 308q16 16 23.5 35.5t7.5 40.5q0 23 -9 45t-27 39q-17 18 -39 27
t-45 9q-21 0 -41 -7.5t-35 -23.5l-342 -342l-6 -5q-19 -19 -19 -48q0 -31 23 -54q22 -22 53 -22q29 0 48 19l242 242l20 20q7 7 7 19t-9 21t-22 9q-11 0 -18 -7l-223 -223l-43 43l223 223q13 13 28.5 19t32.5 6q38 0 65 -27q27 -29 27 -64q0 -17 -6.5 -33t-18.5 -28l-21 -21
l-242 -242q-18 -18 -41.5 -27.5t-48.5 -9.5z" />
    <glyph glyph-name="equal" unicode="=" horiz-adv-x="802" 
d="M717 299q25 -42 25 -92q0 -43 -19 -87t-59 -84t-84 -59t-87 -19q-50 0 -92 25q-42 -25 -92 -25q-43 0 -87 19t-84 59t-59 84t-19 87q0 25 6.5 48.5t17.5 43.5q-11 20 -17.5 43.5t-6.5 48.5q0 43 19 87t59 84t84 59t86 19q51 0 93 -25q42 25 92 25q43 0 87 -19t84 -59
t59 -84t19 -87q0 -50 -25 -92zM493 600q-30 0 -57 -12h1q49 -6 92.5 -27.5t77 -55.5t55.5 -77.5t28 -92.5v-1q12 27 12 57q0 34 -15.5 71t-50.5 72t-72 50.5t-71 15.5zM575 117q37 37 56 83.5t19 95.5t-18.5 95.5t-55.5 84.5l-68 -68q22 -23 33.5 -52t11.5 -59.5
t-11.5 -59.5t-34.5 -52h-1zM166 534q-35 -35 -50.5 -72t-15.5 -71q0 -30 12 -57v1q6 49 27.5 92.5t55.5 77.5t77 55.5t93 27.5h1q-27 12 -58 12q-33 0 -70 -15.5t-72 -50.5zM226 479q-37 -37 -55.5 -83.5t-18.5 -95t18 -95.5t55 -84l69 68q-23 23 -34 52t-11 59t11.5 59
t34.5 52v1zM309 -2q30 0 57 12h-1q-50 6 -93 28t-77 55.5t-55.5 76.5t-27.5 93v1q-12 -27 -12 -57q0 -34 15.5 -71t50.5 -72t72 -50.5t71 -15.5zM401 182q24 0 45.5 9t37 25t25 37t9.5 45v1q0 48 -34 82q-17 17 -38 26t-44 9h-1q-24 0 -45.5 -9t-37 -25t-25 -37t-9.5 -45v-1
q0 -48 34 -82q35 -35 82 -35h1zM636 64q35 35 50.5 72t15.5 71q0 30 -12 57v-1q-6 -50 -28 -93t-55.5 -77t-77 -55.5t-92.5 -27.5h-1q27 -12 57 -12q34 0 71 15.5t72 50.5z" />
    <glyph glyph-name="greater" unicode="&#x3e;" horiz-adv-x="817" 
d="M663 648l94 -94l-80 -81l-94 95zM285 166l307 307l42 -42l-402 -403v0l-1 -1v1l-171 -78l77 171l-1 1l404 403l26 -26l-307 -307zM222 71l37 38l-35 5l-6 36l-37 -38l-34 -74z" />
    <glyph glyph-name="question" unicode="?" horiz-adv-x="822" 
d="M526 323l-93 52l216 101q19 10 34 14t27 4q18 0 29 -7q12 -8 16 -17l7 -15zM291 275l73 -41l-43 -24q-11 -7 -15.5 -12.5t-6.5 -13.5q-3 -8 -4 -19.5t-3 -26.5q-2 -22 -7.5 -43t-19.5 -39q-14 -17 -36 -27.5t-53 -10.5h-1q-59 0 -89 30q-15 14 -20.5 32.5t-5.5 36.5
q0 22 11 37q6 8 14 14.5t19 12.5h1zM213 87q29 15 38 45.5t-6 58.5l-136 -72q15 -29 45.5 -38t58.5 6zM385 354l377 -211l-7 -15q-4 -9 -16 -17q-14 -7 -29 -7q-24 0 -61 18l-135 63l-193 107q0 1 1 1l1 2q5 10 -5 17l-12 6l-202 101q-11 6 -19 12.5t-14 14.5q-11 15 -11 37
q0 18 5.5 36.5t20.5 32.5q30 30 89 30q31 0 53.5 -10.5t36.5 -27.5q14 -18 19.5 -39t7.5 -43q2 -15 3 -26.5t4 -19.5q2 -8 6.5 -13.5t15.5 -12.5zM246 407q15 28 6 58.5t-37 45.5t-58.5 6.5t-46.5 -37.5z" />
    <glyph glyph-name="at" unicode="@" horiz-adv-x="821" 
d="M410 651q73 0 137 -27.5t111.5 -75t75 -111.5t27.5 -136t-27.5 -136t-75 -111.5t-111.5 -75t-137 -27.5q-72 0 -136 27.5t-111.5 75t-75 111.5t-27.5 136t27.5 136t75 111.5t111.5 75t136 27.5zM654 301q0 50 -19 94.5t-52 77.5t-77.5 52.5t-95.5 19.5q-36 0 -68.5 -10
t-61.5 -28l336 -337q18 29 28 62t10 69zM166 301q0 -50 19.5 -94.5t52.5 -77.5t77.5 -52.5t94.5 -19.5q36 0 69 10t62 28l-336 337q-39 -59 -39 -131z" />
    <glyph glyph-name="A" unicode="A" horiz-adv-x="808" 
d="M691 124q0 -29 -20.5 -49.5t-49.5 -20.5h-443q-29 0 -49.5 20.5t-20.5 49.5v443q0 29 20.5 49.5t49.5 20.5h443q29 0 49.5 -20.5t20.5 -49.5v-443zM660 567q0 16 -11 27.5t-28 11.5h-443q-17 0 -28 -11.5t-11 -27.5v-443q0 -17 11 -28t28 -11h443q17 0 28 11t11 28v443z
M432 390q58 -10 91.5 -20.5t50 -25t20.5 -35.5t4 -52q0 -32 -10 -56t-33 -40.5t-62 -25t-97 -8.5q-22 0 -48 2t-52.5 5t-51.5 7.5t-45 9.5l25 90q34 -8 76.5 -13t87.5 -5q36 0 46 8t10 26q0 10 -1.5 16t-10 10.5t-26 9t-50.5 10.5q-50 9 -78.5 19.5t-43 25t-18.5 34.5t-4 49
q0 32 9.5 55t33 38t63.5 22t101 7q15 0 36 -1t43 -2.5t44 -4t40 -5.5l2 -3l-14 -91q-36 5 -76.5 8.5t-72.5 3.5q-35 0 -46.5 -7t-11.5 -21q0 -10 1.5 -16t8.5 -10t21 -7t38 -7zM116 33q8 0 8 -8v-3h-5v3q0 4 -2 4q-3 0 -3 -4v-18q0 -3 3 -3q2 0 2 3v6h-2v5h7v-10q0 -9 -8 -9
q-7 0 -7 9v17q0 8 7 8zM128 33h14v-5h-9v-9h7v-5h-7v-10h9v-4h-14v33zM144 33h16v-5h-6v-28h-5v28h-5v5zM168 33h16v-5h-5v-28h-5v28h-6v5zM198 33h5v-33h-5v14h-6v-14h-5v33h5v-14h6v14zM207 33h14v-5h-9v-9h7v-5h-7v-10h9v-4h-14v33zM232 33h14v-5h-9v-10h7v-5h-7v-13h-5
v33zM259 33h5v-25q0 -9 -8 -9t-8 9v25h5v-26q0 -3 3 -3t3 3v26zM272 4h9v-4h-14v33h5v-29zM288 4h9v-4h-14v33h5v-29zM307 33h14v-5h-9v-10h7v-5h-7v-13h-5v33zM331 33q8 0 8 -8v-17q0 -9 -8 -9t-8 9v17q0 8 8 8zM333 25q0 4 -2 4q-3 0 -3 -4v-18q0 -3 3 -3q2 0 2 3v18z
M354 33h5v-33h-6l-6 24v-24h-5v33h7l5 -20v20zM361 33h16v-5h-5v-28h-6v28h-5v5zM398 33l6 -33h-6l-1 6h-6l-1 -6h-5l6 33h7zM397 10l-3 17l-2 -17h5zM403 33h16v-5h-6v-28h-5v28h-5v5zM433 25q0 -5 5 -7.5t5 -9.5q0 -9 -7 -9q-8 0 -8 9v2h5v-3q0 -3 2 -3q3 0 3 3
q0 5 -5 7.5t-5 10.5t8 8q7 0 7 -8v-1h-5v1q0 4 -2 4q-3 0 -3 -4zM458 33h5l-7 -22v-11h-5v11l-7 22h6l4 -15zM477 33h4v-33h-5l-6 24v-24h-5v33h6l6 -20v20zM485 33h15v-5h-10v-9h8v-5h-8v-10h10v-4h-15v33zM518 4q0 -2 0.5 -2.5t0.5 -1.5h-5q-1 1 -1 4v5q0 4 -3 4h-2v-13
h-5v33h8q7 0 7 -8v-2q0 -6 -3 -7q3 -1 3 -7v-5zM513 25q0 3 -2 3h-3v-10h2q3 0 3 4v3zM529 33q8 0 8 -8v-3h-5v3q0 4 -3 4q-2 0 -2 -4v-18q0 -3 2 -3q3 0 3 3v6h-2v5h7v-10q0 -9 -8 -9t-8 9v17q0 8 8 8zM552 33h5l-7 -22v-11h-5v11l-7 22h6l4 -15zM573 33h8v-33h-5v24
l-4 -24h-5l-4 23v-23h-4v33h7l4 -24zM584 33h15v-5h-9v-9h7v-5h-7v-10h9v-4h-15v33zM610 33q8 0 8 -8v-17q0 -8 -8 -8h-8v33h8zM613 25q0 3 -3 3h-3v-24h3q3 0 3 4v17zM621 33h6v-33h-6v33zM642 33l5 -33h-5l-1 6h-6l-1 -6h-5l5 33h8zM640 10l-2 17l-3 -17h5zM650 5h5v-5h-5
v5zM669 33h5v-25q0 -9 -8 -9t-8 9v25h5v-26q0 -3 3 -3t3 3v26zM682 25q0 -5 5 -7.5t5 -9.5q0 -9 -8 -9t-8 9v2h5v-3q0 -3 3 -3t3 3q0 5 -5 7.5t-5 10.5t7 8q8 0 8 -8v-1h-5v1q0 4 -3 4q-2 0 -2 -4z" />
    <glyph glyph-name="B" unicode="B" horiz-adv-x="815" 
d="M280 521l76 -76l-146 -145l146 -145l-76 -76l-220 221zM534 521l221 -221l-221 -221l-75 76l146 145l-146 145z" />
    <glyph glyph-name="C" unicode="C" horiz-adv-x="836" 
d="M773 184q-5 -14 -15 -24q-19 -19 -45 -19t-45 19q-15 15 -18 35t5 38l-63 64q23 -57 23 -114q0 -38 -10 -75.5t-30 -71.5q10 -19 7 -39.5t-18 -36.5q-19 -19 -45.5 -19t-45.5 19t-19 45.5t19 45.5q14 14 32.5 17.5t35.5 -2.5q15 27 22 56.5t8 60.5q-1 32 -9 63t-25 59
l-24 -24l-111 112l15 14q-21 9 -43 13t-45 4q-38 0 -75.5 -11.5t-69.5 -35.5q6 -17 2.5 -35t-17.5 -32q-19 -19 -45 -19t-45 19q-19 20 -19 46t19 45q16 16 37 19t40 -8q38 29 82.5 43t90.5 14q60 0 114 -24l-88 89q-17 -6 -35 -2.5t-31 17.5q-19 19 -19 45.5t19 45.5t45 19
t45 -19q15 -15 18 -35.5t-5 -38.5l92 -92l29 30l111 -111l-29 -30l97 -97q17 5 35 1.5t31 -17.5q14 -13 17.5 -31t-1.5 -35h-1z" />
    <glyph glyph-name="D" unicode="D" horiz-adv-x="824" 
d="M703 91v126h61v-188h-704v540h370v-62h-308v-416h581zM553 569h211v-211l-67 67l-165 -164l-75 75l165 165z" />
    <glyph glyph-name="E" unicode="E" horiz-adv-x="586" 
d="M414 178q23 0 43.5 -9t36 -24.5t24.5 -36t9 -43.5q0 -24 -9 -44.5t-24.5 -36t-36 -24.5t-43.5 -9q-24 0 -44.5 9t-36 24.5t-24.5 36t-9 44.5q0 23 9 43l-89 89q-20 -10 -47 -10q-23 0 -43.5 9t-36 24.5t-24.5 36t-9 43.5q0 24 9 44.5t24.5 36t36 24.5t43.5 9q24 0 47 -10
l89 88q-9 21 -9 43q0 24 9 44.5t24.5 36t36 24.5t44.5 9q23 0 43.5 -9t36 -24.5t24.5 -36t9 -44.5q0 -23 -9 -43.5t-24.5 -36t-36 -24.5t-43.5 -9q-26 0 -50 11l-87 -86q10 -23 10 -47q0 -23 -10 -46l87 -87q24 11 50 11z" />
    <glyph glyph-name="F" unicode="F" horiz-adv-x="821" 
d="M411 651q72 0 136 -27.5t111.5 -75t75 -111.5t27.5 -137q0 -72 -27.5 -136t-75 -111.5t-111.5 -75t-136 -27.5q-73 0 -137 27.5t-111.5 75t-75 111.5t-27.5 136q0 73 27.5 137t75 111.5t111.5 75t137 27.5zM411 135q34 0 64 13t52.5 35.5t35.5 52.5t13 64t-13 64.5
t-35.5 53t-52.5 35.5t-64 13t-64.5 -13t-53 -35.5t-35.5 -53t-13 -64.5t13 -64t35.5 -52.5t53 -35.5t64.5 -13zM411 416q24 0 45 -9t37 -25t25 -37t9 -45t-9 -45t-25 -37t-37 -25t-45 -9t-45 9t-37 25t-25 37t-9 45t9 45t25 37t37 25t45 9zM411 259q17 0 29 12t12 29t-12 29
t-29 12t-29 -12t-12 -29t12 -29t29 -12z" />
    <glyph glyph-name="G" unicode="G" horiz-adv-x="821" 
d="M411 651q72 0 136 -27.5t111.5 -75t75 -111.5t27.5 -137q0 -72 -27.5 -136t-75 -111.5t-111.5 -75t-136 -27.5q-73 0 -137 27.5t-111.5 75t-75 111.5t-27.5 136q0 73 27.5 137t75 111.5t111.5 75t137 27.5zM411 56q50 0 94.5 19.5t77.5 52.5t52.5 77.5t19.5 94.5
q0 51 -19.5 95.5t-52.5 77.5t-77.5 52t-94.5 19q-51 0 -95.5 -19t-77.5 -52t-52 -77.5t-19 -95.5q0 -50 19 -94.5t52 -77.5t77.5 -52.5t95.5 -19.5zM518 233q8 -9 8 -21.5t-9 -20.5q-9 -9 -21 -9q-13 0 -22 9l-93 97v195q0 12 8.5 21t21.5 9q12 0 21 -9t9 -21v-171z" />
    <glyph glyph-name="H" unicode="H" 
d="M122 252h269v-299h-269v299zM728 461q14 0 24 -10t10 -24v-127h-331v161h-40v-161h-331v127q0 14 10 24t24 10h142q-39 19 -57 48q-8 11 -11 23.5t-3 23.5q0 20 8.5 37.5t21.5 30.5q14 12 31 19.5t37 8.5q20 0 38 -6.5t34 -16.5q16 -11 29 -24.5t24 -29.5
q7 -10 12.5 -19.5t10.5 -19.5q0 1 2 5q14 26 32 49t42 39q16 10 33.5 16.5t37.5 6.5q40 -2 65 -25q13 -11 21 -27t8 -35q0 -49 -52 -86q-14 -9 -30 -18h158zM247 511q19 -12 51.5 -22t82.5 -15q-3 11 -7.5 22.5t-9.5 22.5q-22 46 -57 68q-21 15 -44 15q-18 0 -34 -14
q-15 -15 -15 -32q0 -10 7 -20q8 -12 26 -25zM474 546q-12 -17 -21 -36.5t-14 -39.5q50 10 82 22.5t50 26.5q20 14 26 26t6 20q0 15 -13 25q-14 12 -32 12q-22 0 -44 -15q-11 -7 -21 -17.5t-19 -23.5zM431 252h269v-299h-269v299z" />
    <glyph glyph-name="I" unicode="I" horiz-adv-x="780" 
d="M638 69q22 0 37 -15.5t15 -36.5q0 -22 -15 -37t-37 -15q-21 0 -36.5 15t-15.5 37q0 21 15.5 36.5t36.5 15.5zM231 69q22 0 37 -15.5t15 -36.5q0 -22 -15 -37t-37 -15q-21 0 -36.5 15t-15.5 37q0 21 15.5 36.5t36.5 15.5zM313 275l-29 -91h392q16 0 27 -11t11 -27t-11 -27
t-27 -11h-497l55 170l-103 281h-32q-16 0 -27.5 11t-11.5 27t11.5 27t27.5 11h85l30 -80h506v-162l-118 -118h-289z" />
    <glyph glyph-name="J" unicode="J" horiz-adv-x="658" 
d="M570 314q11 0 19 -8t8 -19v-312q0 -11 -8 -19t-19 -8h-484q-11 0 -18.5 8t-7.5 19v312q0 11 7.5 19t18.5 8h36v118q0 45 15.5 84t43.5 69q28 29 65.5 47t81.5 18t82 -18t66 -47q28 -30 43.5 -69t15.5 -84v-118h35zM220 314h217v118q0 26 -9 47.5t-24 38.5
q-15 16 -34.5 25t-41.5 9t-41 -9t-34 -25q-15 -17 -24 -38.5t-9 -47.5v-118z" />
    <glyph glyph-name="K" unicode="K" horiz-adv-x="459" 
d="M230 642q35 0 66 -13.5t54 -36.5t36.5 -54t13.5 -66q0 -51 -26 -91.5t-68 -60.5v-291l-75 -74l-74 74l52 53l-55 55v3l60 61l-57 57l-3 4v58q-42 20 -68 60.5t-26 91.5q0 35 13.5 66t36.5 54t54 36.5t66 13.5zM230 464q22 0 37 15.5t15 37.5t-15 37t-37 15t-37.5 -15
t-15.5 -37t15.5 -37.5t37.5 -15.5z" />
    <glyph glyph-name="L" unicode="L" horiz-adv-x="822" 
d="M702 124q0 -29 -20.5 -49.5t-49.5 -20.5h-443q-29 0 -49.5 20.5t-20.5 49.5v443q0 29 20.5 49.5t49.5 20.5h443q29 0 49.5 -20.5t20.5 -49.5v-443zM671 567q0 16 -11 27.5t-28 11.5h-443q-17 0 -28 -11.5t-11 -27.5v-443q0 -17 11 -28t28 -11h443q17 0 28 11t11 28v443z
M443 390q58 -10 91.5 -20.5t50 -25t20.5 -35.5t4 -52q0 -32 -10 -56t-33 -40.5t-62 -25t-97 -8.5q-22 0 -48 2t-52.5 5t-51.5 7.5t-45 9.5l25 90q34 -8 76.5 -13t87.5 -5q36 0 46 8t10 26q0 10 -1.5 16t-10 10.5t-26 9t-50.5 10.5q-50 9 -78.5 19.5t-43 25t-18.5 34.5t-4 49
q0 32 9.5 55t33 38t63.5 22t101 7q15 0 36 -1t43 -2.5t44 -4t40 -5.5l2 -3l-14 -91q-36 5 -76.5 8.5t-72.5 3.5q-35 0 -46.5 -7t-11.5 -21q0 -10 1.5 -16t8.5 -10t21 -7t38 -7zM127 33q8 0 8 -8v-3h-5v3q0 4 -2 4q-3 0 -3 -4v-18q0 -3 3 -3q2 0 2 3v6h-2v5h7v-10q0 -9 -8 -9
q-7 0 -7 9v17q0 8 7 8zM139 33h14v-5h-9v-9h7v-5h-7v-10h9v-4h-14v33zM155 33h16v-5h-6v-28h-5v28h-5v5zM179 33h16v-5h-5v-28h-5v28h-6v5zM209 33h5v-33h-5v14h-6v-14h-5v33h5v-14h6v14zM218 33h14v-5h-9v-9h7v-5h-7v-10h9v-4h-14v33zM243 33h14v-5h-9v-10h7v-5h-7v-13h-5
v33zM270 33h5v-25q0 -9 -8 -9t-8 9v25h5v-26q0 -3 3 -3t3 3v26zM283 4h9v-4h-14v33h5v-29zM299 4h9v-4h-14v33h5v-29zM318 33h14v-5h-9v-10h7v-5h-7v-13h-5v33zM342 33q8 0 8 -8v-17q0 -9 -8 -9t-8 9v17q0 8 8 8zM344 25q0 4 -2 4q-3 0 -3 -4v-18q0 -3 3 -3q2 0 2 3v18z
M365 33h5v-33h-6l-6 24v-24h-5v33h7l5 -20v20zM372 33h16v-5h-5v-28h-6v28h-5v5zM409 33l6 -33h-6l-1 6h-6l-1 -6h-5l6 33h7zM408 10l-3 17l-2 -17h5zM414 33h16v-5h-6v-28h-5v28h-5v5zM444 25q0 -5 5 -7.5t5 -9.5q0 -9 -7 -9q-8 0 -8 9v2h5v-3q0 -3 2 -3q3 0 3 3
q0 5 -5 7.5t-5 10.5t8 8q7 0 7 -8v-1h-5v1q0 4 -2 4q-3 0 -3 -4zM469 33h5l-7 -22v-11h-5v11l-7 22h6l4 -15zM488 33h4v-33h-5l-6 24v-24h-5v33h6l6 -20v20zM496 33h15v-5h-10v-9h8v-5h-8v-10h10v-4h-15v33zM529 4q0 -2 0.5 -2.5t0.5 -1.5h-5q-1 1 -1 4v5q0 4 -3 4h-2v-13
h-5v33h8q7 0 7 -8v-2q0 -6 -3 -7q3 -1 3 -7v-5zM524 25q0 3 -2 3h-3v-10h2q3 0 3 4v3zM540 33q8 0 8 -8v-3h-5v3q0 4 -3 4q-2 0 -2 -4v-18q0 -3 2 -3q3 0 3 3v6h-2v5h7v-10q0 -9 -8 -9t-8 9v17q0 8 8 8zM563 33h5l-7 -22v-11h-5v11l-7 22h6l4 -15zM584 33h8v-33h-5v24
l-4 -24h-5l-4 23v-23h-4v33h7l4 -24zM595 33h15v-5h-9v-9h7v-5h-7v-10h9v-4h-15v33zM621 33q8 0 8 -8v-17q0 -8 -8 -8h-8v33h8zM624 25q0 3 -3 3h-3v-24h3q3 0 3 4v17zM632 33h6v-33h-6v33zM653 33l5 -33h-5l-1 6h-6l-1 -6h-5l5 33h8zM651 10l-2 17l-3 -17h5zM661 5h5v-5h-5
v5zM680 33h5v-25q0 -9 -8 -9t-8 9v25h5v-26q0 -3 3 -3t3 3v26zM693 25q0 -5 5 -7.5t5 -9.5q0 -9 -8 -9t-8 9v2h5v-3q0 -3 3 -3t3 3q0 5 -5 7.5t-5 10.5t7 8q8 0 8 -8v-1h-5v1q0 4 -3 4q-2 0 -2 -4z" />
    <glyph glyph-name="M" unicode="M" horiz-adv-x="847" 
d="M785 383q3 -9 -5 -16l-207 -150l80 -245q3 -8 -5 -16q-5 -3 -9 -3q-5 0 -8 3l-208 151l-208 -151q-9 -7 -17 0t-5 16l80 245l-207 150q-8 7 -5 16q3 10 13 10h256l80 244q4 9 13 9q11 0 13 -9l80 -244h256q11 0 13 -10z" />
    <glyph glyph-name="N" unicode="N" horiz-adv-x="815" 
d="M723 523q14 0 23 -9.5t9 -22.5v-382q0 -14 -9 -23t-23 -9h-631q-14 0 -23 9t-9 23v382q0 13 9 22.5t23 9.5h631zM427 197h-268v-28h268v28zM259 213v27h-100v-27h100zM408 213v27h-130v-27h130zM722 428h-628v-132h628v132z" />
    <glyph glyph-name="O" unicode="O" 
d="M416 573q73 -2 136.5 -24.5t110.5 -61t73.5 -88.5t25.5 -107t-29.5 -106t-77 -85t-113 -56.5t-136.5 -19.5q-65 1 -124 20l-178 -76q16 36 23 70q6 29 4 62.5t-22 60.5q-24 32 -37 68t-12 76q1 57 29.5 106t77 85.5t112.5 56.5t137 19z" />
    <glyph glyph-name="P" unicode="P" 
d="M60 602h702v-606h-702v606zM704 51v435h-585v-435h585zM409 402l186 -235h-372z" />
    <glyph glyph-name="Q" unicode="Q" horiz-adv-x="792" 
d="M257 -38l-197 197v279l197 197h278l198 -197v-279l-198 -197h-278v0z" />
    <glyph glyph-name="R" unicode="R" horiz-adv-x="700" 
d="M641 124q0 -29 -20.5 -49.5t-49.5 -20.5h-443q-29 0 -49.5 20.5t-20.5 49.5v443q0 29 20.5 49.5t49.5 20.5h443q29 0 49.5 -20.5t20.5 -49.5v-443zM610 567q0 16 -11 27.5t-28 11.5h-443q-17 0 -28 -11.5t-11 -27.5v-443q0 -17 11 -28t28 -11h443q17 0 28 11t11 28v443z
M382 390q58 -10 91.5 -20.5t50 -25t20.5 -35.5t4 -52q0 -32 -10 -56t-33 -40.5t-62 -25t-97 -8.5q-22 0 -48 2t-52.5 5t-51.5 7.5t-45 9.5l25 90q34 -8 76.5 -13t87.5 -5q36 0 46 8t10 26q0 10 -1.5 16t-10 10.5t-26 9t-50.5 10.5q-50 9 -78.5 19.5t-43 25t-18.5 34.5t-4 49
q0 32 9.5 55t33 38t63.5 22t101 7q15 0 36 -1t43 -2.5t44 -4t40 -5.5l2 -3l-14 -91q-36 5 -76.5 8.5t-72.5 3.5q-35 0 -46.5 -7t-11.5 -21q0 -10 1.5 -16t8.5 -10t21 -7t38 -7zM66 33q8 0 8 -8v-3h-5v3q0 4 -2 4q-3 0 -3 -4v-18q0 -3 3 -3q2 0 2 3v6h-2v5h7v-10q0 -9 -8 -9
q-7 0 -7 9v17q0 8 7 8zM78 33h14v-5h-9v-9h7v-5h-7v-10h9v-4h-14v33zM94 33h16v-5h-6v-28h-5v28h-5v5zM118 33h16v-5h-5v-28h-5v28h-6v5zM148 33h5v-33h-5v14h-6v-14h-5v33h5v-14h6v14zM157 33h14v-5h-9v-9h7v-5h-7v-10h9v-4h-14v33zM182 33h14v-5h-9v-10h7v-5h-7v-13h-5v33
zM209 33h5v-25q0 -9 -8 -9t-8 9v25h5v-26q0 -3 3 -3t3 3v26zM222 4h9v-4h-14v33h5v-29zM238 4h9v-4h-14v33h5v-29zM257 33h14v-5h-9v-10h7v-5h-7v-13h-5v33zM281 33q8 0 8 -8v-17q0 -9 -8 -9t-8 9v17q0 8 8 8zM283 25q0 4 -2 4q-3 0 -3 -4v-18q0 -3 3 -3q2 0 2 3v18zM304 33
h5v-33h-6l-6 24v-24h-5v33h7l5 -20v20zM311 33h16v-5h-5v-28h-6v28h-5v5zM348 33l6 -33h-6l-1 6h-6l-1 -6h-5l6 33h7zM347 10l-3 17l-2 -17h5zM353 33h16v-5h-6v-28h-5v28h-5v5zM383 25q0 -5 5 -7.5t5 -9.5q0 -9 -7 -9q-8 0 -8 9v2h5v-3q0 -3 2 -3q3 0 3 3q0 5 -5 7.5
t-5 10.5t8 8q7 0 7 -8v-1h-5v1q0 4 -2 4q-3 0 -3 -4zM408 33h5l-7 -22v-11h-5v11l-7 22h6l4 -15zM427 33h4v-33h-5l-6 24v-24h-5v33h6l6 -20v20zM435 33h15v-5h-10v-9h8v-5h-8v-10h10v-4h-15v33zM468 4q0 -2 0.5 -2.5t0.5 -1.5h-5q-1 1 -1 4v5q0 4 -3 4h-2v-13h-5v33h8
q7 0 7 -8v-2q0 -6 -3 -7q3 -1 3 -7v-5zM463 25q0 3 -2 3h-3v-10h2q3 0 3 4v3zM479 33q8 0 8 -8v-3h-5v3q0 4 -3 4q-2 0 -2 -4v-18q0 -3 2 -3q3 0 3 3v6h-2v5h7v-10q0 -9 -8 -9t-8 9v17q0 8 8 8zM502 33h5l-7 -22v-11h-5v11l-7 22h6l4 -15zM523 33h8v-33h-5v24l-4 -24h-5
l-4 23v-23h-4v33h7l4 -24zM534 33h15v-5h-9v-9h7v-5h-7v-10h9v-4h-15v33zM560 33q8 0 8 -8v-17q0 -8 -8 -8h-8v33h8zM563 25q0 3 -3 3h-3v-24h3q3 0 3 4v17zM571 33h6v-33h-6v33zM592 33l5 -33h-5l-1 6h-6l-1 -6h-5l5 33h8zM590 10l-2 17l-3 -17h5zM600 5h5v-5h-5v5zM619 33
h5v-25q0 -9 -8 -9t-8 9v25h5v-26q0 -3 3 -3t3 3v26zM632 25q0 -5 5 -7.5t5 -9.5q0 -9 -8 -9t-8 9v2h5v-3q0 -3 3 -3t3 3q0 5 -5 7.5t-5 10.5t7 8q8 0 8 -8v-1h-5v1q0 4 -3 4q-2 0 -2 -4z" />
    <glyph glyph-name="S" unicode="S" 
d="M332 576h431v-134h-431v134zM332 231v134h431v-134h-431zM332 21v133h431v-133h-431zM60 197v203l174 -102z" />
    <glyph glyph-name="T" unicode="T" horiz-adv-x="802" 
d="M495 193l65 -53l-144 -119v82q-5 -1 -16 -1q-50 0 -95.5 7.5t-85.5 21.5q-39 14 -71.5 34.5t-54.5 47.5q-15 18 -24 40.5t-9 46.5q0 30 13 56t34 46q28 28 69 48l72 -59q-2 -1 -3 -1t-3 -1q-26 -9 -45.5 -21t-31.5 -24q-13 -13 -18 -23.5t-5 -20.5q0 -17 15 -35
q16 -21 51 -39t85 -29.5t107 -11.5h16v74l79 -65v-1zM385 497q5 1 15 1q51 0 96.5 -7.5t85.5 -21.5q39 -14 71.5 -34.5t54.5 -47.5q15 -18 24 -40t9 -47q0 -33 -16 -63q-18 -29 -42 -49q-12 -11 -26 -20.5t-31 -17.5l-71 59q17 6 31 13t25 15q32 20 41 40q7 11 7 23
q0 17 -15 35q-16 21 -51 39q-35 19 -85 30t-108 11h-15v-76l-144 119l144 119v-80z" />
    <glyph glyph-name="U" unicode="U" horiz-adv-x="767" 
d="M645 266q0 -4 -1 -5q6 -20 17 -53t21 -67.5t17.5 -64t7.5 -40.5q0 -29 -20 -49t-49 -20t-48.5 20t-19.5 49q0 9 5 30t12 47.5t15.5 55t16.5 52.5l-66 -66l-156 -156q-6 -7 -14 -9.5t-16 -2.5q-20 2 -40 10q-23 10 -45 25q-24 15 -50.5 36.5t-52.5 47.5q-39 40 -67.5 78
t-41.5 70q-10 23 -10 40q0 8 2.5 16t9.5 14l122 122q-8 9 -14 18t-11 18q-8 15 -13 29.5t-5 30.5q0 35 28 63q30 30 65 30q24 -2 45 -12q11 -6 22 -13.5t22 -16.5q13 -11 28 -25q7 -1 17 -6q11 -4 22 -10t23 -14q24 -16 50.5 -37.5t52.5 -47.5q39 -40 67 -78t42 -69
q10 -23 10 -40zM204 502q7 -12 18 -27l86 86h1q-11 8 -20 14.5t-18 11.5q-14 7 -27 7q-9 0 -17.5 -3.5t-19.5 -14.5q-9 -9 -12 -17t-4 -17q0 -17 13 -40zM569 233l-9 3q-21 9 -45 24q-49 32 -102 85q-40 40 -68 78t-42 70q-1 2 -1.5 4t-1.5 4l-46 -46v-2q0 -10 7 -25
q6 -18 21 -38q14 -22 34 -46.5t45 -49.5q38 -38 73.5 -64t61.5 -37q8 -4 14.5 -5t9.5 -1h3zM579 326q-2 2 -2 3q-14 22 -34 46t-46 50q-37 37 -73 63t-61 37q-15 7 -25 7h-1q0 -1 -0.5 -1t-0.5 -1q0 -3 1.5 -9.5t5.5 -14.5l9 -18t12 -21q14 -22 34 -46.5t46 -49.5
q12 -13 24.5 -24t24.5 -21h86z" />
    <glyph glyph-name="V" unicode="V" horiz-adv-x="827" 
d="M337 578h431v-134h-431v134zM337 233v134h431v-134h-431zM337 23v133h431v-133h-431zM234 199l-174 101l174 102v-203z" />
    <glyph glyph-name="W" unicode="W" horiz-adv-x="824" 
d="M764 292l-150 -149v96h-141v-205h-134v205h-130v-96l-149 149l149 149v-96h130v224h134v-224h141v96l150 -149v0z" />
    <glyph glyph-name="X" unicode="X" horiz-adv-x="755" 
d="M694 577v-134h-431v134h431zM263 366h431v-133h-431v133zM263 156h431v-134h-431v134zM112 538h-34v20q11 0 19 2q9 2 14 7q4 6 5 11q1 2 1 5h24v-144h-29v99zM113 258q-4 -3 -7 -7h63v-25h-99q0 8 2 14.5t5 13.5q6 15 29 31q10 7 16 12t9 8q9 9 9 20q0 9 -5 16
q-6 6 -15 6q-13 0 -17 -10q-2 -5 -4 -18h-27q0 19 6 30q12 22 41 22q23 0 36 -13q14 -12 14 -34q0 -17 -10 -28q-5 -7 -20 -19l-12 -8q-5 -4 -8.5 -6.5t-5.5 -4.5zM147 97q3 0 11 -6q11 -11 11 -28q0 -19 -13 -32q-12 -14 -37 -14q-31 0 -43 20q-5 9 -7 28h28q0 -10 3 -14
q5 -11 19 -11q8 0 14 6t6 16q0 15 -11 19q-6 3 -21 3v21q12 0 20 2q9 4 9 17q0 7 -5 14q-5 5 -13 5q-11 0 -15 -7q-5 -7 -5 -17h-26q0 10 3 21q2 4 4.5 8t6.5 7q3 3 6.5 4.5t7.5 3.5q7 3 18 3q20 0 34 -11q13 -11 13 -29q0 -11 -8 -21q-2 -3 -5 -4.5t-5 -3.5z" />
    <glyph glyph-name="Y" unicode="Y" horiz-adv-x="774" 
d="M671 124q0 -29 -20.5 -49.5t-49.5 -20.5h-443q-29 0 -49.5 20.5t-20.5 49.5v443q0 29 20.5 49.5t49.5 20.5h443q29 0 49.5 -20.5t20.5 -49.5v-443zM640 567q0 16 -11 27.5t-28 11.5h-443q-17 0 -28 -11.5t-11 -27.5v-443q0 -17 11 -28t28 -11h443q17 0 28 11t11 28v443z
M412 390q58 -10 91.5 -20.5t50 -25t20.5 -35.5t4 -52q0 -32 -10 -56t-33 -40.5t-62 -25t-97 -8.5q-22 0 -48 2t-52.5 5t-51.5 7.5t-45 9.5l25 90q34 -8 76.5 -13t87.5 -5q36 0 46 8t10 26q0 10 -1.5 16t-10 10.5t-26 9t-50.5 10.5q-50 9 -78.5 19.5t-43 25t-18.5 34.5t-4 49
q0 32 9.5 55t33 38t63.5 22t101 7q15 0 36 -1t43 -2.5t44 -4t40 -5.5l2 -3l-14 -91q-36 5 -76.5 8.5t-72.5 3.5q-35 0 -46.5 -7t-11.5 -21q0 -10 1.5 -16t8.5 -10t21 -7t38 -7zM96 33q8 0 8 -8v-3h-5v3q0 4 -2 4q-3 0 -3 -4v-18q0 -3 3 -3q2 0 2 3v6h-2v5h7v-10q0 -9 -8 -9
q-7 0 -7 9v17q0 8 7 8zM108 33h14v-5h-9v-9h7v-5h-7v-10h9v-4h-14v33zM124 33h16v-5h-6v-28h-5v28h-5v5zM148 33h16v-5h-5v-28h-5v28h-6v5zM178 33h5v-33h-5v14h-6v-14h-5v33h5v-14h6v14zM187 33h14v-5h-9v-9h7v-5h-7v-10h9v-4h-14v33zM212 33h14v-5h-9v-10h7v-5h-7v-13h-5
v33zM239 33h5v-25q0 -9 -8 -9t-8 9v25h5v-26q0 -3 3 -3t3 3v26zM252 4h9v-4h-14v33h5v-29zM268 4h9v-4h-14v33h5v-29zM287 33h14v-5h-9v-10h7v-5h-7v-13h-5v33zM311 33q8 0 8 -8v-17q0 -9 -8 -9t-8 9v17q0 8 8 8zM313 25q0 4 -2 4q-3 0 -3 -4v-18q0 -3 3 -3q2 0 2 3v18z
M334 33h5v-33h-6l-6 24v-24h-5v33h7l5 -20v20zM341 33h16v-5h-5v-28h-6v28h-5v5zM378 33l6 -33h-6l-1 6h-6l-1 -6h-5l6 33h7zM377 10l-3 17l-2 -17h5zM383 33h16v-5h-6v-28h-5v28h-5v5zM413 25q0 -5 5 -7.5t5 -9.5q0 -9 -7 -9q-8 0 -8 9v2h5v-3q0 -3 2 -3q3 0 3 3
q0 5 -5 7.5t-5 10.5t8 8q7 0 7 -8v-1h-5v1q0 4 -2 4q-3 0 -3 -4zM438 33h5l-7 -22v-11h-5v11l-7 22h6l4 -15zM457 33h4v-33h-5l-6 24v-24h-5v33h6l6 -20v20zM465 33h15v-5h-10v-9h8v-5h-8v-10h10v-4h-15v33zM498 4q0 -2 0.5 -2.5t0.5 -1.5h-5q-1 1 -1 4v5q0 4 -3 4h-2v-13
h-5v33h8q7 0 7 -8v-2q0 -6 -3 -7q3 -1 3 -7v-5zM493 25q0 3 -2 3h-3v-10h2q3 0 3 4v3zM509 33q8 0 8 -8v-3h-5v3q0 4 -3 4q-2 0 -2 -4v-18q0 -3 2 -3q3 0 3 3v6h-2v5h7v-10q0 -9 -8 -9t-8 9v17q0 8 8 8zM532 33h5l-7 -22v-11h-5v11l-7 22h6l4 -15zM553 33h8v-33h-5v24
l-4 -24h-5l-4 23v-23h-4v33h7l4 -24zM564 33h15v-5h-9v-9h7v-5h-7v-10h9v-4h-15v33zM590 33q8 0 8 -8v-17q0 -8 -8 -8h-8v33h8zM593 25q0 3 -3 3h-3v-24h3q3 0 3 4v17zM601 33h6v-33h-6v33zM622 33l5 -33h-5l-1 6h-6l-1 -6h-5l5 33h8zM620 10l-2 17l-3 -17h5zM630 5h5v-5h-5
v5zM649 33h5v-25q0 -9 -8 -9t-8 9v25h5v-26q0 -3 3 -3t3 3v26zM662 25q0 -5 5 -7.5t5 -9.5q0 -9 -8 -9t-8 9v2h5v-3q0 -3 3 -3t3 3q0 5 -5 7.5t-5 10.5t7 8q8 0 8 -8v-1h-5v1q0 4 -3 4q-2 0 -2 -4z" />
    <glyph glyph-name="Z" unicode="Z" horiz-adv-x="714" 
d="M217 47v166h-156v177h156v166l308 -255zM138 653h515v-705h-515v72h442v560h-442v73z" />
    <glyph glyph-name="bracketleft" unicode="[" horiz-adv-x="673" 
d="M395 550h158v-93l-88 -124q39 -29 62 -73.5t23 -97.5q0 -44 -16.5 -83t-45.5 -68t-68 -46t-84 -17q-44 0 -83 17t-68 46t-45.5 68t-16.5 83q0 48 19.5 90t54.5 72l-77 135v91h158v-183q27 9 58 9q32 0 59 -9v183zM474 162q0 28 -11 53t-29.5 43.5t-44 29.5t-53.5 11
t-53 -11t-43.5 -29.5t-29.5 -43.5t-11 -53q0 -29 11 -54t29.5 -43.5t43.5 -29.5t53 -11t53.5 11t44 29.5t29.5 43.5t11 54zM613 652v-62h-553v62h553zM332 290q0 3 4 3q3 0 5 -3l27 -84h89q4 0 4 -3q2 -4 -2 -6l-71 -52l27 -84q1 -2 -1 -6q-1 0 -1.5 -0.5t-1.5 -0.5
t-1.5 0.5t-1.5 0.5l-72 52l-71 -52q-3 -2 -6 0q-2 2 -2 6l28 84l-72 52q-3 3 -1 6q0 3 4 3h88z" />
    <glyph glyph-name="backslash" unicode="\" horiz-adv-x="670" 
d="M60 610h550v-618h-550v618zM147 32v59h-59v-59h59zM147 152v59h-59v-59h59zM147 277v59h-59v-59h59zM147 397v59h-59v-59h59zM147 511v60h-59v-60h59zM488 60v210h-306v-210h306zM488 333v210h-306v-210h306zM582 32v59h-59v-59h59zM582 152v59h-59v-59h59zM582 277v59
h-59v-59h59zM582 397v59h-59v-59h59zM582 511v60h-59v-60h59z" />
    <glyph glyph-name="bracketright" unicode="]" horiz-adv-x="824" 
d="M512 419q27 0 51 -10t41.5 -28t28 -42t10.5 -51t-10.5 -51t-28 -41.5t-41.5 -28t-51 -10.5t-51 10.5t-42 28t-28 41.5t-10 51t10 51t28 42t42 28t51 10zM512 211q32 0 54.5 22.5t22.5 54.5t-22.5 54.5t-54.5 22.5t-54.5 -22.5t-22.5 -54.5t22.5 -54.5t54.5 -22.5z
M764 530v-461h-704v461h67l37 42h107l37 -42h456zM281 438q9 0 15.5 6.5t6.5 14.5q0 9 -6.5 15.5t-15.5 6.5h-100q-9 0 -15.5 -6.5t-6.5 -15.5q0 -8 6.5 -14.5t15.5 -6.5h100zM512 117q35 0 66 13.5t54.5 36.5t37 54t13.5 67t-13.5 67t-37 54.5t-54.5 37t-66 13.5
q-36 0 -67 -13.5t-54.5 -37t-37 -54.5t-13.5 -67t13.5 -67t37 -54t54.5 -36.5t67 -13.5zM728 480q0 11 -12 11h-26q-5 0 -8.5 -3t-3.5 -8v-27q0 -5 3.5 -8t8.5 -3h26q12 0 12 11v27z" />
    <glyph glyph-name="asciicircum" unicode="^" horiz-adv-x="827" 
d="M737 351q4 -16 10.5 -42.5t12 -58t8 -64t-2 -60.5t-17 -48t-37.5 -25q-27 -6 -53 10.5t-51 40t-49.5 46.5t-48.5 30q-18 6 -45 9t-55.5 3t-56 -3.5t-45.5 -10.5q-14 -6 -30 -20t-33.5 -31t-36 -34t-37 -27.5t-38 -12.5t-37.5 11q-19 13 -26.5 38t-8 56.5t4.5 66.5
t12.5 67t15.5 59t13 43q13 41 27 72.5t34.5 51t50.5 26.5t77 -1q15 -3 29.5 -8.5t29.5 -11.5t30 -10.5t32 -4.5q20 0 37 4.5t33.5 10.5t32.5 11.5t34 8.5q46 6 77.5 -8.5t52 -42.5t33 -65.5t21.5 -75.5zM269 260q20 0 38 7.5t31 21t20.5 31t7.5 37.5q0 41 -28 69.5t-69 28.5
t-69.5 -28.5t-28.5 -69.5q0 -20 7.5 -37.5t21 -31t31.5 -21t38 -7.5zM573 439q-8 -9 -8 -21t8 -20t20 -8t20 8t8 20t-8 21q-8 8 -20 8t-20 -8zM518 344q9 -8 21 -8t20 8t8 20t-8 20t-20 8t-21 -8q-8 -8 -8 -20t8 -20zM611 291q8 9 8 21t-8 20t-20 8t-20 -8t-8 -20t8 -21
q8 -8 20 -8t20 8zM666 346q8 8 8 20t-8 20t-20.5 8t-20.5 -8t-8 -20t8 -20t20.5 -8t20.5 8zM269 415q23 0 40 -17t17 -41q0 -23 -17 -40t-40 -17q-24 0 -41 17t-17 40q0 24 17 41t41 17z" />
    <glyph glyph-name="underscore" unicode="_" horiz-adv-x="752" 
d="M440 635h158l95 -669h-151l-14 137h-247l-75 -137h-146l380 669v0zM343 219h170l-28 263l-142 -263v0z" />
    <glyph glyph-name="quoteleft" unicode="&#x2018;" horiz-adv-x="826" 
d="M157 141q41 0 69 -28t28 -69q0 -40 -28 -68t-69 -28q-20 0 -37.5 7.5t-31 20.5t-21 30.5t-7.5 37.5t7.5 38t21 31t31 20.5t37.5 7.5zM60 415q97 0 182.5 -36.5t149 -100t100 -148.5t36.5 -182h-137q0 68 -26 128t-71 105t-105 71t-129 26v137zM60 653q97 0 187.5 -25
t169 -71t143 -110.5t110.5 -143t71 -168.5t25 -187h-141q0 117 -44.5 219.5t-121 179t-179.5 121t-220 44.5v141z" />
    <glyph glyph-name="a" unicode="a" horiz-adv-x="814" 
d="M407 367q26 0 45.5 -19t19.5 -46t-19.5 -46t-45.5 -19q-27 0 -46.5 19t-19.5 46t19.5 46t46.5 19zM407 488q32 0 64 -8t62.5 -21.5t58.5 -30t52 -34.5q57 -41 109 -94q-52 -53 -109 -94q-24 -18 -52 -34.5t-58.5 -29.5t-62.5 -21t-64 -8q-33 0 -65 8t-62.5 21t-58.5 29.5
t-52 34.5q-57 41 -109 94q52 53 109 94q24 18 52 34.5t58.5 30t62.5 21.5t65 8zM407 169q27 0 51 10.5t42 28.5t28.5 42.5t10.5 51.5q0 28 -10.5 52t-28.5 42t-42 28.5t-51 10.5q-28 0 -52 -10.5t-42 -28.5t-28.5 -42t-10.5 -52q0 -27 10.5 -51.5t28.5 -42.5t42 -28.5
t52 -10.5z" />
    <glyph glyph-name="b" unicode="b" horiz-adv-x="759" 
d="M60 618h76v-658h-76v658zM453 562q24 -39 47 -64t45 -39t42 -19t37 -5q40 1 76 28q-45 -92 -93 -151q-21 -25 -44.5 -45.5t-49 -30t-52.5 -5t-54 29.5t-51.5 38.5t-45.5 18.5t-39 3.5t-33 -6.5q-34 -12 -60 -45v347q54 27 105 32q22 2 45 0t45.5 -11.5t43 -27.5t36.5 -48
z" />
    <glyph glyph-name="c" unicode="c" horiz-adv-x="815" 
d="M733 438q9 -2 15.5 -9.5t6.5 -17.5q-3 -40 -5 -76q-2 -31 -3.5 -62.5t-2.5 -50.5q-1 -20 -1.5 -51t-1.5 -61q-1 -35 -3 -73q0 -11 -3.5 -19.5t-14.5 -8.5h-625q-11 0 -14.5 8.5t-3.5 19.5q-2 38 -3 73q-2 30 -2.5 61t-1.5 51q-1 19 -2 50.5t-3 62.5q-2 36 -5 76
q0 22 22 27h651zM733 488h-651v18q0 11 7.5 18.5t18.5 7.5h-1q8 0 13.5 10.5t5.5 15.5v3q0 12 8 20t20 8h176q11 0 19.5 -8t8.5 -20l-1 -3q0 -5 5.5 -15.5t13.5 -10.5h330q11 0 19 -7.5t8 -18.5v-18z" />
    <glyph glyph-name="d" unicode="d" horiz-adv-x="820" 
d="M697 124q0 -29 -20.5 -49.5t-49.5 -20.5h-443q-29 0 -49.5 20.5t-20.5 49.5v443q0 29 20.5 49.5t49.5 20.5h443q29 0 49.5 -20.5t20.5 -49.5v-443zM666 567q0 16 -11 27.5t-28 11.5h-443q-17 0 -28 -11.5t-11 -27.5v-443q0 -17 11 -28t28 -11h443q17 0 28 11t11 28v443z
M438 390q58 -10 91.5 -20.5t50 -25t20.5 -35.5t4 -52q0 -32 -10 -56t-33 -40.5t-62 -25t-97 -8.5q-22 0 -48 2t-52.5 5t-51.5 7.5t-45 9.5l25 90q34 -8 76.5 -13t87.5 -5q36 0 46 8t10 26q0 10 -1.5 16t-10 10.5t-26 9t-50.5 10.5q-50 9 -78.5 19.5t-43 25t-18.5 34.5t-4 49
q0 32 9.5 55t33 38t63.5 22t101 7q15 0 36 -1t43 -2.5t44 -4t40 -5.5l2 -3l-14 -91q-36 5 -76.5 8.5t-72.5 3.5q-35 0 -46.5 -7t-11.5 -21q0 -10 1.5 -16t8.5 -10t21 -7t38 -7zM122 33q8 0 8 -8v-3h-5v3q0 4 -2 4q-3 0 -3 -4v-18q0 -3 3 -3q2 0 2 3v6h-2v5h7v-10q0 -9 -8 -9
q-7 0 -7 9v17q0 8 7 8zM134 33h14v-5h-9v-9h7v-5h-7v-10h9v-4h-14v33zM150 33h16v-5h-6v-28h-5v28h-5v5zM174 33h16v-5h-5v-28h-5v28h-6v5zM204 33h5v-33h-5v14h-6v-14h-5v33h5v-14h6v14zM213 33h14v-5h-9v-9h7v-5h-7v-10h9v-4h-14v33zM238 33h14v-5h-9v-10h7v-5h-7v-13h-5
v33zM265 33h5v-25q0 -9 -8 -9t-8 9v25h5v-26q0 -3 3 -3t3 3v26zM278 4h9v-4h-14v33h5v-29zM294 4h9v-4h-14v33h5v-29zM313 33h14v-5h-9v-10h7v-5h-7v-13h-5v33zM337 33q8 0 8 -8v-17q0 -9 -8 -9t-8 9v17q0 8 8 8zM339 25q0 4 -2 4q-3 0 -3 -4v-18q0 -3 3 -3q2 0 2 3v18z
M360 33h5v-33h-6l-6 24v-24h-5v33h7l5 -20v20zM367 33h16v-5h-5v-28h-6v28h-5v5zM404 33l6 -33h-6l-1 6h-6l-1 -6h-5l6 33h7zM403 10l-3 17l-2 -17h5zM409 33h16v-5h-6v-28h-5v28h-5v5zM439 25q0 -5 5 -7.5t5 -9.5q0 -9 -7 -9q-8 0 -8 9v2h5v-3q0 -3 2 -3q3 0 3 3
q0 5 -5 7.5t-5 10.5t8 8q7 0 7 -8v-1h-5v1q0 4 -2 4q-3 0 -3 -4zM464 33h5l-7 -22v-11h-5v11l-7 22h6l4 -15zM483 33h4v-33h-5l-6 24v-24h-5v33h6l6 -20v20zM491 33h15v-5h-10v-9h8v-5h-8v-10h10v-4h-15v33zM524 4q0 -2 0.5 -2.5t0.5 -1.5h-5q-1 1 -1 4v5q0 4 -3 4h-2v-13
h-5v33h8q7 0 7 -8v-2q0 -6 -3 -7q3 -1 3 -7v-5zM519 25q0 3 -2 3h-3v-10h2q3 0 3 4v3zM535 33q8 0 8 -8v-3h-5v3q0 4 -3 4q-2 0 -2 -4v-18q0 -3 2 -3q3 0 3 3v6h-2v5h7v-10q0 -9 -8 -9t-8 9v17q0 8 8 8zM558 33h5l-7 -22v-11h-5v11l-7 22h6l4 -15zM579 33h8v-33h-5v24
l-4 -24h-5l-4 23v-23h-4v33h7l4 -24zM590 33h15v-5h-9v-9h7v-5h-7v-10h9v-4h-15v33zM616 33q8 0 8 -8v-17q0 -8 -8 -8h-8v33h8zM619 25q0 3 -3 3h-3v-24h3q3 0 3 4v17zM627 33h6v-33h-6v33zM648 33l5 -33h-5l-1 6h-6l-1 -6h-5l5 33h8zM646 10l-2 17l-3 -17h5zM656 5h5v-5h-5
v5zM675 33h5v-25q0 -9 -8 -9t-8 9v25h5v-26q0 -3 3 -3t3 3v26zM688 25q0 -5 5 -7.5t5 -9.5q0 -9 -8 -9t-8 9v2h5v-3q0 -3 3 -3t3 3q0 5 -5 7.5t-5 10.5t7 8q8 0 8 -8v-1h-5v1q0 4 -3 4q-2 0 -2 -4z" />
    <glyph glyph-name="e" unicode="e" horiz-adv-x="700" 
d="M199 539l266 -153l-113 -65l-266 153zM617 473l-103 -59l-266 154l102 59zM375 277l265 153v-305l-265 -153v305zM60 125v307l266 -153v-307z" />
    <glyph glyph-name="f" unicode="f" horiz-adv-x="716" 
d="M550 529q54 -45 80.5 -105t26.5 -125v-11l-84 -16q1 7 1.5 13.5t0.5 13.5q0 47 -20 91t-58 76q-31 25 -66.5 37.5t-71.5 12.5q-85 0 -150 -60l61 -51l-183 -34l1 187l58 -49q44 45 99 67t114 22q51 0 100 -17t91 -52zM445 196l183 35v-186l-56 46q-43 -45 -98.5 -68
t-114.5 -23h-1q-51 0 -100 17t-91 52q-57 48 -84 112t-23 133l84 16q-1 -8 -1.5 -15.5t-0.5 -15.5q0 -47 20 -90.5t58 -75.5q31 -26 66 -38t72 -12q42 0 80.5 15t70.5 45z" />
    <glyph glyph-name="g" unicode="g" horiz-adv-x="820" 
d="M759 551v-601h-699v390l230 -105v105l212 -97v97l151 -80v291h106zM616 612q-17 0 -37 -8.5t-45 -32.5l-28 28q29 29 56.5 41t53.5 12q25 0 44.5 -8.5t33.5 -18.5q14 -11 21 -19t8 -9l-28 -21l-4 -3l-1 1t-1.5 2t-2.5 2q-4 6 -16 14q-10 8 -23.5 14t-30.5 6zM315 514
q-14 11 -21 19t-8 9l32 24q1 0 1 -1l4 -4q3 -3 7 -6.5t9 -7.5q11 -8 24.5 -14t30.5 -6t36.5 8.5t44.5 32.5l29 -28q-29 -29 -56.5 -41t-53.5 -12t-45.5 8.5t-33.5 18.5zM314 563l4 3zM181 612q-16 0 -36 -8.5t-45 -32.5l-28 28q29 29 56.5 41t52.5 12q26 0 45.5 -8.5
t33.5 -18.5q14 -11 21 -19t8 -9l-32 -24l-1 1q-1 1 -1.5 2t-2.5 2q-3 3 -7 6.5t-9 7.5q-11 8 -24.5 14t-30.5 6zM257 573l5 3z" />
    <glyph glyph-name="h" unicode="h" 
d="M527 470l12 -12v-511h-479v670h321l11 -12zM499 405q0 12 -6.5 19.5t-16.5 12t-22.5 6t-25.5 1.5q-31 0 -69 -9q7 39 7 70q0 26 -7.5 48.5t-30.5 22.5h-228v-589h399v418zM763 507v-457h-181v41h141v367v5q-1 1 -1 2v1q-5 16 -24.5 21t-41.5 4q-26 -1 -56 -8v2q2 15 4 31
q2 14 1.5 29t-2.5 29t-9 24t-21 10v1h-1h-114l-41 41h204l130 -131z" />
    <glyph glyph-name="i" unicode="i" 
d="M61 602h702v-606h-702v606zM705 51v435h-585v-435h585zM596 368l-186 -235l-186 235h372z" />
    <glyph glyph-name="j" unicode="j" horiz-adv-x="662" 
d="M596 528l-268 -341l-268 341h536zM67 175h535v-106h-535v106z" />
    <glyph glyph-name="k" unicode="k" horiz-adv-x="768" 
d="M708 403v-205h-291v-192l-357 294l357 295v-192h291v0z" />
    <glyph glyph-name="l" unicode="l" horiz-adv-x="768" 
d="M60 403h291v192l357 -295l-357 -294v192h-291v205v0z" />
    <glyph glyph-name="m" unicode="m" horiz-adv-x="709" 
d="M457 332h192l-294 -357l-295 357h192v291h205v-291v0z" />
    <glyph glyph-name="n" unicode="n" horiz-adv-x="709" 
d="M457 266v-291h-205v291h-192l295 357l294 -357h-192v0z" />
    <glyph glyph-name="o" unicode="o" horiz-adv-x="826" 
d="M441 0v392h133v-392h-133zM632 583h134v-583h-134v583zM250 0v201h133v-201h-133zM59 0v44h133v-44h-133z" />
    <glyph glyph-name="p" unicode="p" horiz-adv-x="727" 
d="M651 134q5 -6 9 -14t4 -19t-4 -19t-9 -14q-11 -11 -24 -17q-14 -8 -30 -13t-36 -10q-39 -8 -90 -13t-109 -5q-38 0 -73 2t-66 6q-31 5 -57.5 10t-46.5 13q-14 5 -25 11t-20 16q-5 6 -9.5 14t-4.5 19t4.5 19t9.5 14q11 11 24 17q14 9 35 15q25 22 33.5 43.5t9 42.5t-3 43
t-3.5 46t10.5 52t29.5 54t45 47.5t57 33.5v9q0 21 15 36.5t36 15.5q22 0 37 -15.5t15 -36.5q0 -5 -1 -7q32 -11 59.5 -32.5t47.5 -48.5t31.5 -55.5t11.5 -52.5t-4 -46.5t-3.5 -44t10 -43t36.5 -45.5q1 0 1.5 -0.5t1.5 -0.5q14 -5 25 -11t21 -16zM585 98q2 1 3.5 1.5t3.5 1.5
q-8 3 -19 6.5t-25 6.5q-56 12 -139 17q-3 -17 -16.5 -27.5t-30.5 -10.5t-30 10.5t-17 27.5q-23 -2 -44 -3.5t-41 -3.5q-29 -4 -52 -9.5t-38 -10.5q-2 -1 -4 -1.5t-4 -1.5q8 -3 19.5 -6.5t25.5 -6.5q35 -8 82.5 -13t102.5 -4q36 -1 69.5 1t62.5 6t52 9.5t39 10.5z" />
    <glyph glyph-name="q" unicode="q" horiz-adv-x="825" 
d="M702 124q0 -29 -20.5 -49.5t-49.5 -20.5h-443q-29 0 -49.5 20.5t-20.5 49.5v443q0 29 20.5 49.5t49.5 20.5h443q29 0 49.5 -20.5t20.5 -49.5v-443zM671 567q0 16 -11 27.5t-28 11.5h-443q-17 0 -28 -11.5t-11 -27.5v-443q0 -17 11 -28t28 -11h443q17 0 28 11t11 28v443z
M443 390q58 -10 91.5 -20.5t50 -25t20.5 -35.5t4 -52q0 -32 -10 -56t-33 -40.5t-62 -25t-97 -8.5q-22 0 -48 2t-52.5 5t-51.5 7.5t-45 9.5l25 90q34 -8 76.5 -13t87.5 -5q36 0 46 8t10 26q0 10 -1.5 16t-10 10.5t-26 9t-50.5 10.5q-50 9 -78.5 19.5t-43 25t-18.5 34.5t-4 49
q0 32 9.5 55t33 38t63.5 22t101 7q15 0 36 -1t43 -2.5t44 -4t40 -5.5l2 -3l-14 -91q-36 5 -76.5 8.5t-72.5 3.5q-35 0 -46.5 -7t-11.5 -21q0 -10 1.5 -16t8.5 -10t21 -7t38 -7zM127 33q8 0 8 -8v-3h-5v3q0 4 -2 4q-3 0 -3 -4v-18q0 -3 3 -3q2 0 2 3v6h-2v5h7v-10q0 -9 -8 -9
q-7 0 -7 9v17q0 8 7 8zM139 33h14v-5h-9v-9h7v-5h-7v-10h9v-4h-14v33zM155 33h16v-5h-6v-28h-5v28h-5v5zM179 33h16v-5h-5v-28h-5v28h-6v5zM209 33h5v-33h-5v14h-6v-14h-5v33h5v-14h6v14zM218 33h14v-5h-9v-9h7v-5h-7v-10h9v-4h-14v33zM243 33h14v-5h-9v-10h7v-5h-7v-13h-5
v33zM270 33h5v-25q0 -9 -8 -9t-8 9v25h5v-26q0 -3 3 -3t3 3v26zM283 4h9v-4h-14v33h5v-29zM299 4h9v-4h-14v33h5v-29zM318 33h14v-5h-9v-10h7v-5h-7v-13h-5v33zM342 33q8 0 8 -8v-17q0 -9 -8 -9t-8 9v17q0 8 8 8zM344 25q0 4 -2 4q-3 0 -3 -4v-18q0 -3 3 -3q2 0 2 3v18z
M365 33h5v-33h-6l-6 24v-24h-5v33h7l5 -20v20zM372 33h16v-5h-5v-28h-6v28h-5v5zM409 33l6 -33h-6l-1 6h-6l-1 -6h-5l6 33h7zM408 10l-3 17l-2 -17h5zM414 33h16v-5h-6v-28h-5v28h-5v5zM444 25q0 -5 5 -7.5t5 -9.5q0 -9 -7 -9q-8 0 -8 9v2h5v-3q0 -3 2 -3q3 0 3 3
q0 5 -5 7.5t-5 10.5t8 8q7 0 7 -8v-1h-5v1q0 4 -2 4q-3 0 -3 -4zM469 33h5l-7 -22v-11h-5v11l-7 22h6l4 -15zM488 33h4v-33h-5l-6 24v-24h-5v33h6l6 -20v20zM496 33h15v-5h-10v-9h8v-5h-8v-10h10v-4h-15v33zM529 4q0 -2 0.5 -2.5t0.5 -1.5h-5q-1 1 -1 4v5q0 4 -3 4h-2v-13
h-5v33h8q7 0 7 -8v-2q0 -6 -3 -7q3 -1 3 -7v-5zM524 25q0 3 -2 3h-3v-10h2q3 0 3 4v3zM540 33q8 0 8 -8v-3h-5v3q0 4 -3 4q-2 0 -2 -4v-18q0 -3 2 -3q3 0 3 3v6h-2v5h7v-10q0 -9 -8 -9t-8 9v17q0 8 8 8zM563 33h5l-7 -22v-11h-5v11l-7 22h6l4 -15zM584 33h8v-33h-5v24
l-4 -24h-5l-4 23v-23h-4v33h7l4 -24zM595 33h15v-5h-9v-9h7v-5h-7v-10h9v-4h-15v33zM621 33q8 0 8 -8v-17q0 -8 -8 -8h-8v33h8zM624 25q0 3 -3 3h-3v-24h3q3 0 3 4v17zM632 33h6v-33h-6v33zM653 33l5 -33h-5l-1 6h-6l-1 -6h-5l5 33h8zM651 10l-2 17l-3 -17h5zM661 5h5v-5h-5
v5zM680 33h5v-25q0 -9 -8 -9t-8 9v25h5v-26q0 -3 3 -3t3 3v26zM693 25q0 -5 5 -7.5t5 -9.5q0 -9 -8 -9t-8 9v2h5v-3q0 -3 3 -3t3 3q0 5 -5 7.5t-5 10.5t7 8q8 0 8 -8v-1h-5v1q0 4 -3 4q-2 0 -2 -4z" />
    <glyph glyph-name="r" unicode="r" horiz-adv-x="822" 
d="M608 529h-394v114h394v-114zM728 489q14 0 24 -10.5t10 -24.5v-251h-103v152h-496v-152h-103v251q0 14 10 24.5t24 10.5h634zM688 405q11 0 19 8t8 19t-8 19t-19 8t-19 -8t-8 -19t8 -19t19 -8zM579 298h40v-342h-258l-147 147l-11 11v184h40v-130q1 -24 23 -32t48 -7
q31 0 69 9q-7 -40 -7 -71q0 -27 7.5 -49t30.5 -22h165v302z" />
    <glyph glyph-name="s" unicode="s" horiz-adv-x="827" 
d="M740 319q11 0 19 -7.5t8 -18.5v-313q0 -11 -8 -19t-19 -8h-444q-11 0 -18.5 8t-7.5 19v313q0 11 7.5 18.5t18.5 7.5h42v126q0 43 -27 72q-26 28 -63 28q-36 0 -62 -28q-13 -14 -20.5 -32t-7.5 -40v-88h-57l57 -57v-21h-98v166q0 41 14.5 76.5t39.5 62.5q26 27 60.5 43
t73.5 16q40 0 74.5 -16t59.5 -43q26 -27 40 -62.5t14 -76.5v-126h304v0z" />
    <glyph glyph-name="t" unicode="t" horiz-adv-x="837" 
d="M60 89v421l356 -208v208l361 -211l-361 -210v207l-356 -207v0z" />
    <glyph glyph-name="u" unicode="u" horiz-adv-x="836" 
d="M777 90l-356 207v-207l-361 210l361 211v-208l356 208v-421v0z" />
    <glyph glyph-name="v" unicode="v" horiz-adv-x="657" 
d="M328 474l269 -340h-537l268 340v0z" />
    <glyph glyph-name="w" unicode="w" horiz-adv-x="657" 
d="M328 129l-268 340h537l-269 -340v0z" />
    <glyph glyph-name="x" unicode="x" horiz-adv-x="819" 
d="M496 79q4 -14 10 -28t16 -23q15 -13 36 -13v-15h-298v15q12 0 20.5 3.5t15.5 9.5q8 6 12.5 14t8.5 18q4 9 5.5 19t3.5 19h167q1 -5 1.5 -9.5t1.5 -9.5zM739 607q8 0 14 -6t6 -14v-434q0 -8 -6 -14t-14 -6h-659q-8 0 -14 6t-6 14v434q0 8 6 14t14 6h659zM711 558h-603
v-376h603v376z" />
    <glyph glyph-name="y" unicode="y" horiz-adv-x="757" 
d="M60 436v181h181v-181h-181zM288 436v181h181v-181h-181zM516 617h181v-181h-181v181zM60 209v180h181v-180h-181zM288 209v180h181v-180h-181zM516 209v180h181v-180h-181zM60 -18v180h181v-180h-181zM288 -18v180h181v-180h-181zM516 -18v180h181v-180h-181z" />
    <glyph glyph-name="z" unicode="z" horiz-adv-x="548" 
d="M564 124q0 -29 -20.5 -49.5t-49.5 -20.5h-443q-29 0 -49.5 20.5t-20.5 49.5v443q0 29 20.5 49.5t49.5 20.5h443q29 0 49.5 -20.5t20.5 -49.5v-443zM533 567q0 16 -11 27.5t-28 11.5h-443q-17 0 -28 -11.5t-11 -27.5v-443q0 -17 11 -28t28 -11h443q17 0 28 11t11 28v443z
M305 390q58 -10 91.5 -20.5t50 -25t20.5 -35.5t4 -52q0 -32 -10 -56t-33 -40.5t-62 -25t-97 -8.5q-22 0 -48 2t-52.5 5t-51.5 7.5t-45 9.5l25 90q34 -8 76.5 -13t87.5 -5q36 0 46 8t10 26q0 10 -1.5 16t-10 10.5t-26 9t-50.5 10.5q-50 9 -78.5 19.5t-43 25t-18.5 34.5t-4 49
q0 32 9.5 55t33 38t63.5 22t101 7q15 0 36 -1t43 -2.5t44 -4t40 -5.5l2 -3l-14 -91q-36 5 -76.5 8.5t-72.5 3.5q-35 0 -46.5 -7t-11.5 -21q0 -10 1.5 -16t8.5 -10t21 -7t38 -7zM-11 33q8 0 8 -8v-3h-5v3q0 4 -2 4q-3 0 -3 -4v-18q0 -3 3 -3q2 0 2 3v6h-2v5h7v-10q0 -9 -8 -9
q-7 0 -7 9v17q0 8 7 8zM1 33h14v-5h-9v-9h7v-5h-7v-10h9v-4h-14v33zM17 33h16v-5h-6v-28h-5v28h-5v5zM41 33h16v-5h-5v-28h-5v28h-6v5zM71 33h5v-33h-5v14h-6v-14h-5v33h5v-14h6v14zM80 33h14v-5h-9v-9h7v-5h-7v-10h9v-4h-14v33zM105 33h14v-5h-9v-10h7v-5h-7v-13h-5v33z
M132 33h5v-25q0 -9 -8 -9t-8 9v25h5v-26q0 -3 3 -3t3 3v26zM145 4h9v-4h-14v33h5v-29zM161 4h9v-4h-14v33h5v-29zM180 33h14v-5h-9v-10h7v-5h-7v-13h-5v33zM204 33q8 0 8 -8v-17q0 -9 -8 -9t-8 9v17q0 8 8 8zM206 25q0 4 -2 4q-3 0 -3 -4v-18q0 -3 3 -3q2 0 2 3v18zM227 33
h5v-33h-6l-6 24v-24h-5v33h7l5 -20v20zM234 33h16v-5h-5v-28h-6v28h-5v5zM271 33l6 -33h-6l-1 6h-6l-1 -6h-5l6 33h7zM270 10l-3 17l-2 -17h5zM276 33h16v-5h-6v-28h-5v28h-5v5zM306 25q0 -5 5 -7.5t5 -9.5q0 -9 -7 -9q-8 0 -8 9v2h5v-3q0 -3 2 -3q3 0 3 3q0 5 -5 7.5
t-5 10.5t8 8q7 0 7 -8v-1h-5v1q0 4 -2 4q-3 0 -3 -4zM331 33h5l-7 -22v-11h-5v11l-7 22h6l4 -15zM350 33h4v-33h-5l-6 24v-24h-5v33h6l6 -20v20zM358 33h15v-5h-10v-9h8v-5h-8v-10h10v-4h-15v33zM391 4q0 -2 0.5 -2.5t0.5 -1.5h-5q-1 1 -1 4v5q0 4 -3 4h-2v-13h-5v33h8
q7 0 7 -8v-2q0 -6 -3 -7q3 -1 3 -7v-5zM386 25q0 3 -2 3h-3v-10h2q3 0 3 4v3zM402 33q8 0 8 -8v-3h-5v3q0 4 -3 4q-2 0 -2 -4v-18q0 -3 2 -3q3 0 3 3v6h-2v5h7v-10q0 -9 -8 -9t-8 9v17q0 8 8 8zM425 33h5l-7 -22v-11h-5v11l-7 22h6l4 -15zM446 33h8v-33h-5v24l-4 -24h-5
l-4 23v-23h-4v33h7l4 -24zM457 33h15v-5h-9v-9h7v-5h-7v-10h9v-4h-15v33zM483 33q8 0 8 -8v-17q0 -8 -8 -8h-8v33h8zM486 25q0 3 -3 3h-3v-24h3q3 0 3 4v17zM494 33h6v-33h-6v33zM515 33l5 -33h-5l-1 6h-6l-1 -6h-5l5 33h8zM513 10l-2 17l-3 -17h5zM523 5h5v-5h-5v5zM542 33
h5v-25q0 -9 -8 -9t-8 9v25h5v-26q0 -3 3 -3t3 3v26zM555 25q0 -5 5 -7.5t5 -9.5q0 -9 -8 -9t-8 9v2h5v-3q0 -3 3 -3t3 3q0 5 -5 7.5t-5 10.5t7 8q8 0 8 -8v-1h-5v1q0 4 -3 4q-2 0 -2 -4z" />
    <glyph glyph-name="zero" unicode="0" horiz-adv-x="821" 
d="M400 300h8h-8zM410 650q73 0 137 -27.5t111.5 -75t75 -111t27.5 -136.5q0 -72 -27.5 -136t-75 -111.5t-111.5 -75t-137 -27.5q-72 0 -136 27.5t-111.5 75t-75 111.5t-27.5 136q0 73 27.5 136.5t75 111t111.5 75t136 27.5zM410 10q60 0 113 23t92 62t62 92t23 113t-23 113
t-62 92t-92 62t-113 23t-112.5 -23t-91.5 -62t-62 -92t-23 -113t23 -113t62 -92t91.5 -62t112.5 -23zM369 158h90v-87h-90v87zM519 487q45 -33 45 -97q0 -40 -19 -66q-6 -8 -16.5 -18t-27.5 -23l-21 -17q-18 -14 -24 -31q-2 -6 -2.5 -15t-1.5 -21h-81q1 50 9 70q10 21 41 45
l22 17q12 10 17 18q12 16 12 37q0 24 -13 41q-13 19 -49 19q-35 0 -50 -23q-14 -23 -14 -48h-87q3 86 60 122q34 22 87 22q69 0 113 -32z" />
    <glyph glyph-name="exclam" unicode="!" horiz-adv-x="505" 
d="M253 315l-193 233h126v159h133v-159h126zM299 30q8 -22 28 -23v-7h-149v7q12 1 18.5 7t9.5 16q2 5 3 9.5t2 9.5h83q1 -8 5 -19zM417 303q10 0 10 -10v-216q0 -10 -10 -10h-329q-10 0 -10 10v216q0 10 10 10h329zM379 255h-253v-140h253v140z" />
  </font>
</defs>
</svg>
